<svg width="121" height="120" viewBox="0 0 121 120" fill="none" xmlns="http://www.w3.org/2000/svg">
<path d="M0.294922 55.862C0.666012 54.8606 0.600041 53.7932 0.729235 52.7588C2.13388 41.4327 6.3698 31.2923 13.5415 22.4339C22.6043 11.2427 34.229 4.13394 48.3277 1.22333C80.0573 -5.32968 111.63 15.1051 118.686 46.6982C125.278 76.2033 109.343 105.664 81.0221 116.292C75.7114 118.283 70.211 119.453 64.5512 119.846C64.3836 119.857 64.1664 119.769 64.0619 120C61.4506 120 58.8419 120 56.2306 120C56.1508 119.802 55.9722 119.851 55.8237 119.843C53.2728 119.664 50.7384 119.334 48.2398 118.803C33.5171 115.664 21.5405 108.124 12.409 96.1566C5.91075 87.6394 2.06516 78.0052 0.737481 67.3641C0.605538 66.3022 0.677007 65.2101 0.294922 64.1812C0.294922 61.4053 0.294922 58.635 0.294922 55.862ZM115.36 60.0078C115.349 29.5399 90.7199 4.87672 60.2686 4.84096C29.8172 4.80244 5.11085 29.4959 5.08886 59.9941C5.06687 90.4785 29.7512 115.194 60.2191 115.199C90.6842 115.205 115.374 90.495 115.36 60.0078Z" fill="url(#paint0_linear)"/>
<path d="M66.0531 56.7697C66.9327 56.4066 67.8069 56.0957 68.7607 56.2498C70.8251 56.5827 72.2132 58.5277 72.1445 60.9843C72.0483 64.4809 69.9345 66.503 66.4407 66.3819C65.5171 66.3489 64.5963 66.1618 63.6754 66.0573C63.2108 66.005 63.1064 65.7739 63.1229 65.3117C63.2548 61.8537 63.2631 58.3956 63.1201 54.9375C63.0899 54.2085 63.0129 53.5207 62.0646 53.452C61.9079 53.441 61.8254 53.3584 61.8282 53.1989C61.8309 53.0283 61.9491 52.9953 62.0893 52.9678C63.3126 52.7202 64.5303 52.4616 65.7563 52.225C66.1851 52.1425 66.0504 52.4808 66.0504 52.6927C66.0559 54.0214 66.0531 55.3529 66.0531 56.7697ZM65.9789 61.4713C66.0091 61.4713 66.0394 61.4713 66.0696 61.4713C66.0696 62.5882 66.0476 63.7051 66.0779 64.8221C66.0999 65.6694 66.306 65.8042 67.1334 65.6309C67.576 65.5401 67.8893 65.2595 68.1532 64.9156C69.316 63.397 69.5056 59.8949 68.5133 58.2801C68.0378 57.507 67.3148 57.1769 66.4902 57.3392C66.1383 57.408 65.9542 57.5318 65.9679 57.9582C66.0036 59.1301 65.9789 60.3021 65.9789 61.4713Z" fill="url(#paint1_linear)"/>
<path d="M40.2218 52.4861C41.8711 52.4861 43.5203 52.5026 45.1696 52.4751C45.6617 52.4669 45.8788 52.5604 45.8541 53.1161C45.8129 54.0185 45.8486 54.9263 45.8788 55.8314C45.8898 56.167 45.8293 56.4119 45.4583 56.4669C45.0927 56.5219 45.1229 56.2056 45.0459 56.002C44.1718 53.7406 42.4675 52.8658 40.0788 53.4325C39.7792 53.504 39.7792 53.6801 39.7765 53.8919C39.7435 55.4105 39.7215 56.9263 39.6748 58.4422C39.6638 58.8301 39.8039 58.9236 40.1805 58.9346C41.8546 58.9759 42.069 58.8576 42.6902 57.3555C42.7754 57.1464 42.8469 56.9511 43.13 57.0089C43.3966 57.0639 43.3389 57.2812 43.3389 57.4545C43.3444 58.7063 43.3444 59.958 43.3389 61.2097C43.3389 61.3775 43.4104 61.6004 43.1218 61.6389C42.8441 61.6774 42.7424 61.5123 42.6847 61.2867C42.2559 59.6224 41.4065 59.7792 40.0651 59.7131C39.7792 59.6994 39.6885 59.8314 39.7022 60.0928C39.7737 61.4463 39.6857 62.8081 39.8919 64.1588C40.0184 64.9759 40.4197 65.4573 41.2773 65.5371C41.489 65.5564 41.8875 65.4573 41.8353 65.903C41.7831 66.3459 41.4175 66.1368 41.2031 66.1396C39.2075 66.1589 37.2118 66.1561 35.2162 66.1424C35.0183 66.1424 34.7021 66.2964 34.6664 65.892C34.6334 65.5069 34.955 65.5509 35.1584 65.5261C35.9886 65.4298 36.3597 64.9209 36.4504 64.1478C36.6923 62.0818 36.6978 60.0048 36.6428 57.9277C36.6126 56.786 36.6511 55.6388 36.4614 54.5027C36.3267 53.6993 35.9749 53.1656 35.098 53.1106C34.8836 53.0969 34.6609 53.0666 34.6692 52.7612C34.6802 52.3486 34.9963 52.4916 35.1969 52.4916C36.8682 52.4806 38.545 52.4861 40.2218 52.4861Z" fill="url(#paint2_linear)"/>
<path d="M54.1802 61.2045C54.1857 64.7919 51.4863 66.9955 47.9926 66.2582C45.8705 65.8098 44.6225 64.1262 44.4961 61.5402C44.3119 57.7657 47.4071 55.2815 50.9998 56.3242C53.0394 56.9156 54.1774 58.6626 54.1802 61.2045ZM51.184 61.3586C51.1675 60.1729 51.14 58.9184 50.5792 57.7602C50.3016 57.188 49.9085 56.7286 49.1773 56.7753C48.4874 56.8194 48.108 57.2843 47.9431 57.8593C47.3081 60.1069 47.2504 62.3655 48.0476 64.5938C48.2757 65.2266 48.688 65.752 49.422 65.741C50.1944 65.73 50.5627 65.1688 50.7991 64.4975C51.1565 63.5044 51.1372 62.4618 51.184 61.3586Z" fill="url(#paint3_linear)"/>
<path d="M78.7976 60.8056C78.0252 60.8056 77.2528 60.8469 76.4859 60.7919C75.9141 60.7534 75.8454 60.9872 75.8702 61.4742C76.0103 64.3077 78.4788 65.752 81.0159 64.4618C81.2029 64.3683 81.3788 64.1702 81.5465 64.4563C81.6976 64.7176 81.4393 64.8469 81.3073 64.9735C79.9247 66.2995 78.2699 66.6874 76.4474 66.2197C74.6442 65.7548 73.5282 64.5388 73.0719 62.7451C72.3352 59.8455 73.814 57.0257 76.4199 56.3049C79.3199 55.4989 81.6537 57.2293 81.7829 60.2609C81.7994 60.6708 81.7059 60.8304 81.2688 60.8139C80.4469 60.7836 79.6223 60.8056 78.7976 60.8056ZM77.2803 60.0519C78.8801 60.0188 78.8801 60.0188 78.7674 58.7534C78.6657 57.6117 78.2616 56.8799 77.6871 56.8001C77.0247 56.7093 76.4831 57.2815 76.123 58.448C75.631 60.0464 75.6585 60.0821 77.2803 60.0519Z" fill="url(#paint4_linear)"/>
<path d="M82.3801 64.3461C82.3801 63.9994 82.3829 63.6528 82.3801 63.3062C82.3774 63.1164 82.3609 62.9375 82.6165 62.8743C82.8831 62.8082 82.9381 62.9981 83.0041 63.1659C83.191 63.6363 83.4082 64.093 83.7133 64.5001C84.2081 65.1604 84.8513 65.518 85.6924 65.4933C86.4511 65.4712 86.9569 65.1109 87.163 64.3846C87.3692 63.6666 87.0888 63.1053 86.4566 62.7752C85.6814 62.3708 84.843 62.0875 84.0761 61.6693C82.2262 60.6624 82.0612 58.2525 83.7215 56.9485C84.1916 56.5798 84.7248 56.324 85.3021 56.2277C86.4703 56.0296 87.6303 56.1039 88.7766 56.4395C89.1752 56.5578 89.3401 56.7449 89.3209 57.1686C89.3016 57.6473 89.3593 58.1259 89.3758 58.6046C89.3841 58.8275 89.5078 59.1081 89.1669 59.2044C88.7931 59.3116 88.8261 58.9595 88.7244 58.7779C88.5457 58.4533 88.4165 58.1012 88.2213 57.7876C87.93 57.3171 87.4957 57.02 86.9541 56.8852C86.201 56.6981 85.5852 56.965 85.2884 57.6142C84.9832 58.2828 85.1427 58.9237 85.7584 59.3749C86.3631 59.8206 87.0723 60.0627 87.7568 60.357C89.4171 61.0723 90.0053 61.9527 89.8404 63.4465C89.6727 64.9706 88.6859 65.9444 87.0393 66.2773C85.8051 66.5277 84.6067 66.3323 83.3999 66.1012C82.7155 65.9692 82.2537 65.7188 82.4241 64.9073C82.4626 64.7285 82.4296 64.5359 82.4296 64.3488C82.4159 64.3461 82.3966 64.3461 82.3801 64.3461Z" fill="url(#paint5_linear)"/>
<path d="M58.4926 58.1533C58.7537 57.7736 58.9159 57.5095 59.1056 57.2702C59.6773 56.5411 60.4223 56.1092 61.3569 56.0872C62.3437 56.0625 62.5059 56.3101 62.1595 57.2097C62.1018 57.3582 62.0468 57.5068 61.9891 57.6553C61.8242 58.0762 61.7637 58.6209 61.4613 58.8768C61.1535 59.1381 60.7411 58.6209 60.3316 58.5934C59.9082 58.5632 59.4849 58.5137 59.0699 58.6622C58.6795 58.7998 58.4569 59.0116 58.4651 59.4738C58.4899 60.9648 58.4541 62.4559 58.4954 63.9442C58.5311 65.1822 58.652 65.2895 59.8505 65.5784C60.0457 65.6251 60.2216 65.6416 60.1914 65.9057C60.1611 66.1836 59.9495 66.1451 59.7708 66.1451C58.0693 66.1478 56.365 66.1478 54.6635 66.1451C54.5096 66.1451 54.3337 66.1698 54.3034 65.9415C54.2732 65.7214 54.3446 65.5866 54.5838 65.5564C55.4634 65.4436 55.5624 64.7833 55.5954 64.09C55.6778 62.3596 55.6833 60.632 55.5954 58.9016C55.5596 58.189 55.5047 57.4793 54.5563 57.3857C54.4161 57.372 54.3062 57.2949 54.3089 57.1299C54.3117 56.9648 54.4354 56.9043 54.5673 56.8768C55.7658 56.6402 56.9643 56.4119 58.1628 56.1725C58.4871 56.1092 58.5036 56.2936 58.5009 56.5356C58.4844 57.0198 58.4926 57.4985 58.4926 58.1533Z" fill="url(#paint6_linear)"/>
<path d="M38.0855 24.511C35.771 24.511 33.4537 24.511 31.1392 24.511C30.8314 24.511 30.5015 24.5935 30.485 24.0708C30.4685 23.5316 30.7736 23.5508 31.142 23.5508C35.826 23.5563 40.5099 23.5536 45.1967 23.5536C45.5045 23.5536 45.8344 23.471 45.8509 23.9938C45.8674 24.533 45.5623 24.5137 45.1939 24.5137C42.8244 24.5082 40.455 24.511 38.0855 24.511Z" fill="url(#paint7_linear)"/>
<path d="M82.2793 23.5535C84.6213 23.5535 86.9632 23.5562 89.3052 23.5507C89.6763 23.5507 89.9787 23.5315 89.9622 24.0707C89.9457 24.5934 89.6159 24.5109 89.308 24.5109C84.624 24.5136 79.94 24.5109 75.2533 24.5164C74.8822 24.5164 74.5799 24.5356 74.5963 23.9964C74.6128 23.4737 74.9427 23.5562 75.2506 23.5562C77.5953 23.5507 79.9373 23.5535 82.2793 23.5535Z" fill="url(#paint8_linear)"/>
<path d="M60.5311 24.0019C60.5229 26.2578 59.3794 27.3692 57.5981 27.0776C56.867 26.9565 56.3035 26.5797 56.0066 25.8974C55.5173 24.7695 55.5145 23.614 56.0231 22.4998C56.4271 21.6085 57.3205 21.2096 58.4283 21.3224C59.3849 21.4214 60.0913 22.0074 60.3524 22.973C60.4624 23.3774 60.4981 23.8038 60.5311 24.0019ZM56.6525 24.1972C56.702 24.5631 56.7268 24.9345 56.8092 25.2922C56.9659 25.9717 57.4057 26.3321 58.1122 26.3321C58.7966 26.3321 59.2089 25.9524 59.3629 25.3279C59.5608 24.5219 59.5855 23.702 59.2942 22.9042C59.088 22.3458 58.6784 22.0789 58.0709 22.0899C57.4662 22.1009 57.0786 22.398 56.8642 22.9428C56.7075 23.3444 56.6745 23.7653 56.6525 24.1972Z" fill="url(#paint9_linear)"/>
<path d="M69.335 24.5216C68.3485 25.1901 67.3894 25.2561 66.6831 24.7416C66.1033 24.3152 65.8614 23.3771 66.117 22.5656C66.3396 21.8558 66.8452 21.4596 67.5488 21.3441C68.3759 21.2093 69.1454 21.3606 69.7198 22.0374C70.6157 23.0938 70.536 25.4129 69.5796 26.4225C68.8844 27.1598 67.3344 27.3524 66.4578 26.8297C66.2544 26.7086 66.1857 26.5876 66.3094 26.3923C66.411 26.2382 66.4083 25.9356 66.7353 26.0539C66.9332 26.1254 67.1338 26.2107 67.3399 26.2492C68.5738 26.4913 69.3103 25.8696 69.335 24.5216ZM68.0352 22.1529C67.3344 22.1722 66.8947 22.6343 66.9249 23.3138C66.9524 23.9273 67.4498 24.3482 68.1039 24.3097C68.7662 24.2712 69.2416 23.8173 69.2444 23.2286C69.2444 22.5931 68.7277 22.1309 68.0352 22.1529Z" fill="url(#paint10_linear)"/>
<path d="M37.2154 78.5773C37.2154 80.6543 37.2154 82.7314 37.2154 84.8084C37.2154 85.1385 37.3171 85.4742 36.7345 85.4742C36.1437 85.4742 36.2591 85.1275 36.2591 84.8029C36.2564 80.5938 36.2564 76.3874 36.2591 72.1783C36.2591 71.8482 36.1574 71.5126 36.74 71.5126C37.3309 71.5126 37.2154 71.8592 37.2154 72.1838C37.2182 74.3159 37.2154 76.4452 37.2154 78.5773Z" fill="url(#paint11_linear)"/>
<path d="M51.3787 26.1753C52.2334 26.1753 52.8627 26.1836 53.492 26.1726C53.8438 26.1643 54.1021 26.1781 54.0966 26.6623C54.0911 27.1327 53.8108 27.0777 53.5195 27.0777C52.5631 27.0749 51.6068 27.0859 50.6532 27.0694C50.4444 27.0667 50.1366 27.218 50.0349 26.9071C49.9414 26.621 50.0294 26.3487 50.2575 26.1121C50.8456 25.5013 51.4117 24.8686 51.9888 24.2441C52.0602 24.1671 52.1482 24.1011 52.2086 24.0158C52.5412 23.5563 53.1265 23.0859 52.6373 22.4917C52.1454 21.8892 51.4914 22.2001 50.8895 22.4587C50.656 22.5605 50.4334 23.1217 50.1036 22.4999C49.8343 21.9855 50.2327 21.9085 50.5021 21.7434C51.1121 21.3693 51.7799 21.2235 52.4862 21.3445C53.6789 21.5508 54.1488 22.533 53.5744 23.6004C53.1897 24.3101 52.5851 24.8411 52.0547 25.4353C51.8871 25.6251 51.7112 25.8122 51.3787 26.1753Z" fill="url(#paint12_linear)"/>
<path d="M74.9638 36.1371C74.7055 36.6433 74.4527 37.1522 74.1806 37.6529C74.0624 37.8702 74.0459 38.2114 73.6859 38.1948C73.3452 38.1783 73.3204 37.8427 73.1995 37.6254C72.9494 37.1715 72.7296 36.6983 72.3559 36.2554C72.3559 36.8496 72.3641 37.4411 72.3531 38.0353C72.3476 38.2746 72.4713 38.613 72.0151 38.5938C71.5452 38.5745 71.7403 38.2141 71.7348 37.9995C71.7128 37.1467 71.7155 36.2939 71.732 35.441C71.7348 35.2457 71.5726 34.9238 71.9876 34.9046C72.2569 34.8908 72.496 34.8853 72.6444 35.2017C72.9604 35.8702 73.3122 36.5222 73.7052 37.2898C74.0789 36.558 74.4169 35.939 74.7082 35.298C74.8566 34.9734 75.0572 34.8606 75.3898 34.9073C75.8322 34.9651 75.6481 35.3117 75.6563 35.5346C75.6783 36.3324 75.6811 37.1329 75.6563 37.9335C75.6481 38.1756 75.8487 38.6103 75.3431 38.5827C74.8594 38.5552 75.1067 38.1343 75.093 37.8977C75.0545 37.3255 75.082 36.7478 75.082 36.1728C75.0435 36.1591 75.0023 36.1481 74.9638 36.1371Z" fill="url(#paint13_linear)"/>
<path d="M62.9272 36.2659C62.9272 36.9014 62.9244 37.5369 62.9272 38.1697C62.9272 38.3952 62.9272 38.5878 62.6084 38.5961C62.2704 38.6043 62.2979 38.3952 62.2979 38.1779C62.2979 37.2453 62.2924 36.3127 62.3034 35.3801C62.3061 35.2013 62.1769 34.9179 62.5397 34.9041C62.8008 34.8959 63.0563 34.8601 63.2075 35.1792C63.5235 35.8478 63.8753 36.5025 64.2737 37.2866C64.6447 36.5575 64.9828 35.9468 65.2741 35.3141C65.417 35.0032 65.5956 34.8629 65.9418 34.8986C66.3925 34.9454 66.2249 35.2838 66.2304 35.5066C66.2496 36.387 66.2386 37.2646 66.2359 38.1449C66.2359 38.354 66.2689 38.5823 65.9363 38.5906C65.5818 38.5988 65.656 38.3485 65.656 38.1531C65.6505 37.4929 65.6533 36.8326 65.5324 36.1256C65.2438 36.7006 64.958 37.2783 64.664 37.8505C64.4111 38.343 64.1446 38.3512 63.889 37.8533C63.6114 37.3168 63.3421 36.7749 63.0701 36.2357C63.0234 36.2467 62.9739 36.2577 62.9272 36.2659Z" fill="url(#paint14_linear)"/>
<path d="M77.0029 36.6845C77.0029 36.6048 76.9974 36.525 77.0029 36.4452C77.0469 35.95 76.7749 35.188 77.1156 35.0119C77.6927 34.7148 78.4649 34.8193 79.1355 34.9789C79.8472 35.1495 80.0671 35.7795 79.6246 36.3902C79.446 36.635 79.479 36.6845 79.6713 36.8441C80.0094 37.1247 80.1138 37.4934 79.9489 37.9198C79.784 38.3517 79.4213 38.5277 79.0145 38.5635C78.4594 38.613 77.8988 38.5773 77.341 38.5965C77.0387 38.6075 76.9947 38.448 77.0002 38.2031C77.0084 37.6969 77.0029 37.1907 77.0029 36.6845ZM78.388 36.9899C78.0087 37.0147 77.5965 36.8331 77.6103 37.4796C77.6213 37.9858 77.8411 38.0463 78.2341 38.0106C78.66 37.9693 79.2784 38.1316 79.3086 37.5126C79.3388 36.9404 78.7562 37.0147 78.388 36.9899ZM78.4127 36.4039C78.6243 36.3902 79.1602 36.503 79.1602 35.9335C79.1602 35.4218 78.6573 35.4933 78.2945 35.4878C77.9648 35.4823 77.602 35.3805 77.6158 35.9638C77.624 36.4782 77.9236 36.4177 78.4127 36.4039Z" fill="url(#paint15_linear)"/>
<path d="M63.8397 24.2194C63.8397 25.0172 63.8204 25.8123 63.8479 26.6101C63.8617 27.02 63.6803 27.0833 63.3285 27.0888C62.963 27.0943 62.8888 26.9485 62.8916 26.6211C62.9053 25.3721 62.8833 24.1259 62.9053 22.8769C62.9136 22.4422 62.8613 22.1424 62.3227 22.2112C62.0012 22.2524 61.7676 22.2112 61.7676 21.771C61.7649 21.3336 61.9902 21.3336 62.3172 21.3226C63.8452 21.2785 63.8424 21.2703 63.8424 22.7834C63.8397 23.2621 63.8397 23.7407 63.8397 24.2194Z" fill="url(#paint16_linear)"/>
<path d="M33.8878 38.6319C32.7968 38.6264 31.9256 37.7653 31.9558 36.7227C31.9861 35.691 32.8242 34.9042 33.8905 34.9015C35.0035 34.9015 35.8801 35.7268 35.8692 36.7667C35.8609 37.8176 34.9898 38.6374 33.8878 38.6319ZM35.1959 36.7557C35.1959 36.0707 34.6243 35.5012 33.9235 35.4875C33.1925 35.4737 32.5687 36.0734 32.5852 36.775C32.5989 37.449 33.1897 38.0404 33.8685 38.0597C34.5775 38.0845 35.1959 37.4765 35.1959 36.7557Z" fill="url(#paint17_linear)"/>
<path d="M88.327 38.5222C87.7609 38.734 87.5356 38.4534 87.3185 38.071C87.1756 37.8206 87.1151 37.4685 86.6782 37.463C86.2165 37.4603 85.8208 37.43 85.9307 38.093C85.9664 38.3103 86.0076 38.5827 85.6229 38.5937C85.2107 38.6074 85.3151 38.3186 85.3124 38.104C85.3041 37.2017 85.3234 36.2993 85.3014 35.3997C85.2931 35.0393 85.3673 34.8605 85.774 34.8935C86.2742 34.9348 86.7881 34.8688 87.28 34.954C88.2254 35.1164 88.7228 36.2085 88.0825 36.8853C87.5686 37.4272 87.7417 37.7354 88.0962 38.1563C88.1786 38.2553 88.2364 38.3764 88.327 38.5222ZM85.9554 36.2113C85.796 36.822 86.1148 36.9348 86.6397 36.8935C87.1316 36.855 87.6812 36.866 87.6895 36.2058C87.6977 35.4878 87.1124 35.529 86.5985 35.4767C86.0049 35.419 85.8318 35.6693 85.9554 36.2113Z" fill="url(#paint18_linear)"/>
<path d="M67.7324 36.6924C67.7324 34.8987 67.7324 34.8987 69.5434 34.9015C69.7028 34.9015 69.8622 34.9042 70.0216 34.9015C70.192 34.8987 70.3376 34.918 70.3376 35.1463C70.3376 35.3746 70.2524 35.4902 70.0106 35.4847C69.6121 35.4764 69.2136 35.5012 68.8152 35.4792C68.4744 35.4627 68.3452 35.5837 68.3535 35.9331C68.3617 36.2632 68.381 36.5053 68.8152 36.4668C69.1312 36.4366 69.4527 36.4641 69.7715 36.4613C69.9639 36.4613 70.1398 36.4558 70.1452 36.7364C70.148 37.0033 70.0023 37.039 69.7935 37.0335C69.5544 37.028 69.3153 37.028 69.0762 37.0335C68.7245 37.039 68.337 36.9042 68.3452 37.5397C68.3562 38.2055 68.7959 37.9799 69.1147 38.0047C69.4582 38.0294 69.8045 38.0129 70.1507 38.0157C70.3404 38.0184 70.4311 38.1119 70.4393 38.31C70.4475 38.5218 70.3376 38.5906 70.1535 38.5906C69.4362 38.5906 68.719 38.5879 68.0017 38.5934C67.7187 38.5961 67.7352 38.4008 67.7352 38.211C67.7324 37.7048 67.7324 37.1986 67.7324 36.6924Z" fill="url(#paint19_linear)"/>
<path d="M81.3203 36.7144C81.3203 34.9015 81.3203 34.9015 83.1093 34.9043C83.2687 34.9043 83.4281 34.9043 83.5875 34.9043C83.7496 34.9043 83.9173 34.896 83.9228 35.1298C83.9283 35.3417 83.8733 35.4957 83.615 35.4875C83.4034 35.4792 83.1725 35.438 82.9802 35.4985C82.6174 35.614 81.9331 35.0886 81.9441 35.9964C81.9551 36.8465 82.5982 36.3293 82.9389 36.4559C83.0791 36.5081 83.255 36.4696 83.4144 36.4641C83.593 36.4586 83.7139 36.4971 83.7249 36.7172C83.7386 36.9675 83.6232 37.0418 83.3951 37.0336C83.0764 37.0253 82.7548 37.0528 82.4388 37.0281C82.0596 36.9951 81.9331 37.1326 81.9331 37.5205C81.9331 37.9057 82.0568 38.046 82.436 38.0157C82.7796 37.9909 83.1258 37.9992 83.4721 38.0157C83.6837 38.0267 83.9887 37.9084 84.0135 38.2908C84.0409 38.7035 83.7194 38.5824 83.5133 38.5879C82.928 38.6017 82.3426 38.5742 81.76 38.5989C81.4137 38.6127 81.2873 38.5026 81.3066 38.1505C81.3395 37.6718 81.3203 37.1931 81.3203 36.7144Z" fill="url(#paint20_linear)"/>
<path d="M61.2973 74.0878C61.7507 73.8842 62.1162 73.7384 62.5285 73.7852C63.1743 73.8567 63.5617 74.1841 63.5837 74.8526C63.603 75.4909 63.6002 76.1319 63.5837 76.7701C63.5782 76.9682 63.7349 77.2873 63.3199 77.2983C62.9352 77.3093 62.9984 77.0287 62.9956 76.7976C62.9901 76.2391 62.9819 75.6779 62.9956 75.1195C63.0066 74.6518 62.839 74.3189 62.3498 74.2832C61.8524 74.2474 61.4237 74.44 61.3633 74.9902C61.2945 75.5954 61.3138 76.2116 61.3 76.8251C61.2946 77.0727 61.3138 77.3203 60.9455 77.3011C60.5828 77.2818 60.7065 77.0067 60.7037 76.8251C60.6927 75.5211 60.6955 74.2144 60.701 72.9104C60.701 72.7233 60.602 72.4565 60.962 72.4509C61.3358 72.4482 61.2945 72.704 61.2945 72.9434C61.2945 73.29 61.2973 73.6339 61.2973 74.0878Z" fill="url(#paint21_linear)"/>
<path d="M52.2539 38.5164C52.7321 37.4379 53.2048 36.3705 53.6747 35.3004C53.7736 35.072 53.867 34.8905 54.1776 34.8932C54.4826 34.896 54.5816 35.0528 54.6832 35.2949C55.1394 36.3678 55.6148 37.4352 56.0875 38.5164C55.7193 38.6429 55.4142 38.6814 55.2878 38.255C55.0432 37.4242 54.3672 37.8699 53.8808 37.7818C53.507 37.7158 53.1415 37.7351 53.0316 38.244C52.9382 38.6869 52.6139 38.6374 52.2539 38.5164ZM54.1583 35.6002C53.889 36.2467 53.7104 36.6731 53.5235 37.1243C53.9825 37.1243 54.3645 37.1243 54.8042 37.1243C54.6008 36.6429 54.4222 36.2192 54.1583 35.6002Z" fill="url(#paint22_linear)"/>
<path d="M56.496 75.9887C56.496 76.2005 56.4988 76.4151 56.496 76.6269C56.4905 77.2129 56.4878 77.2212 55.9162 77.0341C55.6798 76.9571 55.6166 77.1992 55.4517 77.2404C54.9268 77.3642 54.3882 77.477 53.954 77.0396C53.6242 76.7067 53.572 76.2831 53.7974 75.8649C54.0722 75.3532 54.5943 75.3257 55.0862 75.2047C55.3583 75.1359 55.9684 75.5485 55.8667 74.8278C55.7815 74.239 55.3226 74.2088 54.8169 74.3298C54.6053 74.3821 54.2893 74.715 54.1629 74.3051C54.0172 73.8429 54.5091 73.9062 54.7345 73.8456C55.8612 73.5485 56.4575 74.0189 56.496 75.1936C56.5043 75.4578 56.496 75.7218 56.496 75.9887ZM55.4188 75.6723C54.5943 75.7163 54.27 75.9309 54.3113 76.3739C54.3497 76.8195 54.6685 76.836 55.0065 76.8278C55.5617 76.8168 55.82 76.4784 55.8859 75.9804C55.9464 75.499 55.5864 75.6778 55.4188 75.6723Z" fill="url(#paint23_linear)"/>
<path d="M57.9467 82.9462C57.9467 82.6023 57.944 82.2557 57.9467 81.9118C57.9494 81.3231 57.9467 81.3368 58.5211 81.4909C58.62 81.5184 58.7629 81.3698 58.8893 81.3093C59.9446 80.8059 60.8185 81.3368 60.846 82.506C60.8597 83.0892 60.8432 83.6752 60.8515 84.2584C60.8542 84.4978 60.8212 84.6739 60.5134 84.6574C60.2441 84.6436 60.2386 84.4703 60.2386 84.275C60.2386 83.6917 60.2304 83.1058 60.2414 82.5225C60.2496 82.0328 60.0957 81.678 59.5461 81.6587C59.0377 81.6422 58.6832 81.843 58.5733 82.3877C58.4496 82.993 58.5403 83.6037 58.5073 84.2117C58.4963 84.407 58.5788 84.6546 58.2298 84.6574C57.8835 84.6601 57.9494 84.418 57.9467 84.2172C57.944 83.7935 57.9467 83.3699 57.9467 82.9462Z" fill="url(#paint24_linear)"/>
<path d="M48.0366 84.6932C46.8632 84.6877 46.2311 84.3246 45.9426 83.491C45.5853 82.4539 45.6128 81.4387 46.4043 80.5859C46.9484 80.0027 48.0971 79.8321 48.8666 80.1457C49.0479 80.22 49.2266 80.2475 49.1167 80.5199C48.9985 80.8142 48.8089 80.7042 48.6 80.6629C46.9676 80.3548 46.058 81.3287 46.4482 82.96C46.6818 83.9339 47.3084 84.2943 48.4489 84.154C48.6275 84.132 48.9215 83.7909 49.0232 84.2228C49.1112 84.6107 48.7951 84.6327 48.5203 84.6547C48.3087 84.674 48.0971 84.6905 48.0366 84.6932Z" fill="url(#paint25_linear)"/>
<path d="M48.092 77.3284C47.001 77.3532 46.3277 77.0368 45.9677 76.1895C45.5363 75.1744 45.7204 73.8483 46.4184 73.2129C47.1412 72.5554 47.9931 72.5278 48.8835 72.7892C49.0291 72.8332 49.2297 72.847 49.1473 73.0781C49.0868 73.2459 49.0181 73.4494 48.757 73.3394C48.7076 73.3201 48.6554 73.3064 48.6059 73.2926C47.8886 73.0863 47.2126 73.1193 46.7427 73.7713C46.2535 74.4536 46.259 75.2211 46.575 75.9749C46.8636 76.6654 47.5039 76.913 48.4602 76.7837C48.6444 76.759 48.9412 76.4343 49.0318 76.8662C49.1115 77.2569 48.779 77.2624 48.5152 77.2899C48.3009 77.3174 48.0892 77.3284 48.092 77.3284Z" fill="url(#paint26_linear)"/>
<path d="M64.5314 75.5431C64.5424 74.4454 65.125 73.7687 66.0511 73.7797C66.903 73.7879 67.5186 74.5362 67.4251 75.3863C67.3894 75.7082 67.2273 75.7027 67.0074 75.6999C66.5293 75.6972 66.0483 75.7219 65.5702 75.6917C65.0947 75.6614 65.081 75.9172 65.2239 76.2254C65.5564 76.9406 66.172 76.8801 66.8013 76.7618C66.9745 76.7288 67.2163 76.4757 67.2822 76.8663C67.3317 77.1525 67.0926 77.213 66.8893 77.2735C65.5372 77.6834 64.5176 76.9351 64.5314 75.5431ZM66.0319 75.2873C66.183 74.9406 66.7629 75.5816 66.7656 74.9159C66.7656 74.4839 66.4193 74.2611 66.0071 74.2749C65.5674 74.2886 65.1772 74.561 65.2102 74.9929C65.2431 75.4633 65.7296 75.0782 66.0319 75.2873Z" fill="url(#paint27_linear)"/>
<path d="M51.4421 81.1467C52.393 81.1605 53.036 81.9033 53.0113 82.9679C52.9866 84.0628 52.371 84.7093 51.3652 84.6956C50.3786 84.6818 49.818 84.0243 49.8263 82.8854C49.8373 81.7657 50.4253 81.1329 51.4421 81.1467ZM52.3875 82.9349C52.3875 82.1178 52.0385 81.6612 51.4009 81.6529C50.7716 81.6446 50.4199 82.1041 50.4199 82.9294C50.4199 83.763 50.7551 84.1949 51.4009 84.1949C52.0495 84.1976 52.3875 83.763 52.3875 82.9349Z" fill="url(#paint28_linear)"/>
<path d="M56.8245 82.979C56.8245 83.2706 56.863 83.5705 56.8135 83.8566C56.7558 84.184 57.1378 85.0285 56.154 84.4536C55.9891 84.3573 55.5082 84.7039 55.1207 84.7012C54.4309 84.6984 53.9802 84.4123 53.9308 83.697C53.884 82.9818 53.8978 82.2637 53.8868 81.5457C53.884 81.3284 53.9665 81.1908 54.2083 81.1853C54.4886 81.1771 54.4831 81.3751 54.4831 81.565C54.4859 82.1234 54.4804 82.6819 54.4859 83.2431C54.4886 83.7273 54.5601 84.1565 55.1866 84.195C55.816 84.2335 56.1485 83.9061 56.2034 83.3256C56.2557 82.7699 56.2144 82.2087 56.2282 81.6502C56.2337 81.4577 56.1485 81.1908 56.4947 81.1881C56.797 81.1853 56.8245 81.3916 56.8218 81.62C56.8218 82.0739 56.8245 82.5278 56.8245 82.979Z" fill="url(#paint29_linear)"/>
<path d="M51.3848 73.7766C52.3411 73.7656 52.9979 74.4809 53.0117 75.5455C53.0254 76.635 52.4153 77.3227 51.4288 77.3337C50.4312 77.3447 49.8376 76.6927 49.8321 75.5786C49.8239 74.4506 50.3955 73.7876 51.3848 73.7766ZM50.4202 75.5731C50.4202 76.4066 50.761 76.8413 51.4123 76.833C52.0526 76.8248 52.3934 76.3791 52.3906 75.5565C52.3879 74.745 52.0169 74.2663 51.3958 74.2663C50.7885 74.2663 50.4202 74.7642 50.4202 75.5731Z" fill="url(#paint30_linear)"/>
<path d="M47.9162 38.6317C47.0835 38.6345 46.4185 38.1696 46.1492 37.3965C45.8744 36.6125 46.097 35.8037 46.7208 35.3112C47.3584 34.8105 48.2652 34.7528 48.9632 35.1874C49.1116 35.281 49.4112 35.314 49.2326 35.6331C49.0622 35.9357 48.8891 35.8477 48.6555 35.6991C48.1251 35.3607 47.5782 35.4103 47.1028 35.8009C46.7071 36.1283 46.5449 36.574 46.7016 37.0911C46.9489 37.9082 47.7788 38.2356 48.6445 37.8284C48.8753 37.7211 49.0594 37.5753 49.2271 37.8697C49.4304 38.2246 49.0567 38.2548 48.9028 38.3594C48.617 38.563 48.2735 38.64 47.9162 38.6317Z" fill="url(#paint31_linear)"/>
<path d="M37.0482 36.7146C37.0482 34.8687 37.0482 34.8632 38.9059 34.9127C39.1175 34.9182 39.4995 34.7174 39.4858 35.1933C39.4748 35.6362 39.1148 35.4629 38.8867 35.4822C38.6229 35.5069 38.3563 35.5069 38.0925 35.4849C37.6225 35.4436 37.694 35.76 37.672 36.0516C37.6473 36.39 37.7599 36.5386 38.1145 36.5056C38.3783 36.4808 38.6448 36.5001 38.9087 36.5028C39.1148 36.5056 39.3539 36.4505 39.3319 36.7972C39.3126 37.119 39.0928 37.0888 38.8784 37.086C38.851 37.086 38.8262 37.0888 38.7987 37.086C37.9908 36.9677 37.4577 37.1355 37.6693 38.1342C37.7215 38.3818 37.6803 38.6074 37.3175 38.5964C36.9657 38.5826 37.0509 38.3378 37.0482 38.1452C37.0427 37.6693 37.0482 37.1906 37.0482 36.7146Z" fill="url(#paint32_linear)"/>
<path d="M41.852 34.9017C42.1433 34.9017 42.4346 34.9072 42.7259 34.9017C42.9237 34.8962 43.0199 34.976 43.0089 35.1795C42.9979 35.3584 42.9402 35.4849 42.7341 35.4849C42.4153 35.4849 42.0965 35.5097 41.7805 35.4822C41.3518 35.4436 41.1787 35.5619 41.1759 36.0379C41.1732 36.5413 41.4425 36.5138 41.7778 36.5028C42.0416 36.4918 42.3081 36.5055 42.572 36.5C42.7726 36.4945 42.8605 36.5826 42.8495 36.7834C42.8385 36.965 42.7753 37.0888 42.5692 37.086C42.4895 37.086 42.4071 37.0998 42.3301 37.086C41.4123 36.91 41.0165 37.2538 41.1869 38.2002C41.2309 38.445 41.1429 38.5991 40.8462 38.5964C40.5741 38.5936 40.5604 38.4368 40.5604 38.2387C40.5631 37.2566 40.5713 36.2772 40.5549 35.2951C40.5494 34.9705 40.6785 34.8797 40.9753 34.8989C41.2694 34.9154 41.5607 34.9017 41.852 34.9017Z" fill="url(#paint33_linear)"/>
<path d="M69.0706 77.3422C68.936 77.3229 68.6969 77.3064 68.466 77.2541C68.2682 77.2101 68.1363 77.0753 68.1775 76.8497C68.2379 76.5141 68.433 76.7232 68.5952 76.7424C69.0734 76.803 69.7494 77.0973 69.939 76.5251C70.1589 75.8593 69.3701 75.8428 68.9524 75.642C68.455 75.4054 68.0675 75.1056 68.1995 74.5003C68.3231 73.9309 68.8013 73.8071 69.3015 73.7878C69.5625 73.7795 69.8318 73.8043 70.0847 73.8621C70.2605 73.9034 70.5546 73.9034 70.4447 74.2417C70.3622 74.4976 70.1644 74.4233 69.9857 74.3875C69.9088 74.371 69.8373 74.3325 69.7576 74.316C69.3811 74.2362 68.9359 74.1674 68.7985 74.6049C68.6584 75.0505 69.1366 75.0973 69.4279 75.2349C69.4746 75.2569 69.524 75.2816 69.5735 75.3009C70.1314 75.5182 70.7277 75.7383 70.5931 76.5003C70.4557 77.2871 69.8071 77.3257 69.0706 77.3422Z" fill="url(#paint34_linear)"/>
<path d="M59.1861 74.3324C58.7931 74.2719 58.4221 74.3379 58.2105 74.6983C57.8972 75.2375 57.8945 75.8207 58.1666 76.3765C58.3727 76.7919 58.7601 76.8276 59.1861 76.8331C59.3977 76.8359 59.7605 76.448 59.8209 76.9102C59.8841 77.3833 59.4142 77.3091 59.1229 77.3311C58.0072 77.4136 57.3669 76.7671 57.3614 75.5814C57.3559 74.3874 58.0621 73.6859 59.1834 73.796C59.4362 73.8207 59.8621 73.7519 59.8182 74.1674C59.7824 74.569 59.4334 74.3764 59.1861 74.3324Z" fill="url(#paint35_linear)"/>
<path d="M61.7774 82.9787C61.7692 81.639 62.5744 80.899 63.7643 81.1741C63.9429 81.2153 64.2425 81.1961 64.1985 81.5179C64.1545 81.8206 63.9264 81.7985 63.7066 81.7325C63.2174 81.5867 62.7722 81.6748 62.5276 82.1287C62.2501 82.6431 62.2611 83.2153 62.5331 83.7435C62.7887 84.2387 63.2531 84.2057 63.7203 84.159C63.8852 84.1424 64.16 83.8866 64.1957 84.2965C64.2205 84.5799 64.0034 84.6211 63.778 84.6679C62.5469 84.921 61.7857 84.2827 61.7774 82.9787Z" fill="url(#paint36_linear)"/>
<path d="M57.6506 36.4916C57.6506 36.6236 57.6506 36.7584 57.6506 36.8905C57.6506 37.9606 57.6506 37.9551 58.7086 38.0129C58.923 38.0239 59.2253 37.9111 59.2418 38.299C59.2583 38.7117 58.9367 38.5769 58.7334 38.5879C57.0241 38.6731 57.0241 38.6704 57.0241 36.9427C57.0241 36.4118 57.0186 35.8781 57.0268 35.3471C57.0296 35.1518 56.9526 34.9097 57.3044 34.9015C57.6781 34.8932 57.6561 35.127 57.6534 35.3746C57.6479 35.746 57.6506 36.1174 57.6506 36.4916Z" fill="url(#paint37_linear)"/>
<path d="M66.7846 82.2337C66.7846 81.5707 66.7846 80.9076 66.7846 80.2474C66.7846 80.0356 66.7461 79.8017 67.0759 79.8072C67.3892 79.8127 67.3809 80.0273 67.3809 80.2474C67.3782 81.5734 67.3809 82.8967 67.3782 84.2227C67.3782 84.4345 67.4001 84.6601 67.0759 84.6628C66.7406 84.6656 66.7873 84.4262 66.7873 84.2227C66.7818 83.5597 66.7846 82.8967 66.7846 82.2337Z" fill="url(#paint38_linear)"/>
<path d="M51.0953 36.8081C51.0953 37.2317 51.1035 37.6554 51.0926 38.0791C51.0871 38.2964 51.1832 38.5715 50.7958 38.5963C50.389 38.621 50.4742 38.3432 50.4742 38.1203C50.4687 37.1932 50.4687 36.2661 50.4742 35.339C50.4742 35.1437 50.4083 34.9071 50.7545 34.9016C51.1283 34.8961 51.098 35.1354 51.098 35.3775C51.0953 35.8534 51.0953 36.3294 51.0953 36.8081Z" fill="url(#paint39_linear)"/>
<path d="M44.8667 36.7667C44.8667 37.1904 44.8749 37.614 44.8639 38.0377C44.8584 38.277 44.9739 38.6017 44.5259 38.5907C44.1137 38.5824 44.2511 38.277 44.2484 38.0762C44.2346 37.1766 44.2401 36.277 44.2456 35.3747C44.2456 35.1546 44.1632 34.874 44.5671 34.8987C44.9574 34.9208 44.8612 35.1986 44.8667 35.4159C44.8722 35.8671 44.8667 36.3183 44.8667 36.7667Z" fill="url(#paint40_linear)"/>
<path d="M65.6522 83.026C65.6522 83.4497 65.6522 83.8733 65.6522 84.297C65.6522 84.4978 65.6302 84.6629 65.3636 84.6629C65.1053 84.6629 65.0586 84.5116 65.0586 84.3052C65.0586 83.3781 65.0586 82.451 65.0613 81.5239C65.0613 81.3038 65.163 81.1718 65.3966 81.1855C65.6027 81.1993 65.6494 81.3451 65.6494 81.5184C65.6522 82.0191 65.6522 82.5226 65.6522 83.026Z" fill="url(#paint41_linear)"/>
<defs>
<linearGradient id="paint0_linear" x1="60.2307" y1="0" x2="60.2307" y2="120" gradientUnits="userSpaceOnUse">
<stop stop-color="#AFB1AE"/>
<stop offset="1" stop-color="#D8D8D8"/>
</linearGradient>
<linearGradient id="paint1_linear" x1="66.9875" y1="52.2123" x2="66.9875" y2="66.3871" gradientUnits="userSpaceOnUse">
<stop stop-color="#AFB1AE"/>
<stop offset="1" stop-color="#D8D8D8"/>
</linearGradient>
<linearGradient id="paint2_linear" x1="40.272" y1="52.4677" x2="40.272" y2="66.1865" gradientUnits="userSpaceOnUse">
<stop stop-color="#AFB1AE"/>
<stop offset="1" stop-color="#D8D8D8"/>
</linearGradient>
<linearGradient id="paint3_linear" x1="49.3342" y1="56.0852" x2="49.3342" y2="66.4001" gradientUnits="userSpaceOnUse">
<stop stop-color="#AFB1AE"/>
<stop offset="1" stop-color="#D8D8D8"/>
</linearGradient>
<linearGradient id="paint4_linear" x1="77.3337" y1="56.1075" x2="77.3337" y2="66.4098" gradientUnits="userSpaceOnUse">
<stop stop-color="#AFB1AE"/>
<stop offset="1" stop-color="#D8D8D8"/>
</linearGradient>
<linearGradient id="paint5_linear" x1="86.123" y1="56.1191" x2="86.123" y2="66.3943" gradientUnits="userSpaceOnUse">
<stop stop-color="#AFB1AE"/>
<stop offset="1" stop-color="#D8D8D8"/>
</linearGradient>
<linearGradient id="paint6_linear" x1="58.3112" y1="56.0856" x2="58.3112" y2="66.1471" gradientUnits="userSpaceOnUse">
<stop stop-color="#AFB1AE"/>
<stop offset="1" stop-color="#D8D8D8"/>
</linearGradient>
<linearGradient id="paint7_linear" x1="38.168" y1="23.5488" x2="38.168" y2="24.5157" gradientUnits="userSpaceOnUse">
<stop stop-color="#AFB1AE"/>
<stop offset="1" stop-color="#D8D8D8"/>
</linearGradient>
<linearGradient id="paint8_linear" x1="82.2793" y1="23.5507" x2="82.2793" y2="24.5164" gradientUnits="userSpaceOnUse">
<stop stop-color="#AFB1AE"/>
<stop offset="1" stop-color="#D8D8D8"/>
</linearGradient>
<linearGradient id="paint9_linear" x1="58.0859" y1="21.3037" x2="58.0859" y2="27.1233" gradientUnits="userSpaceOnUse">
<stop stop-color="#AFB1AE"/>
<stop offset="1" stop-color="#D8D8D8"/>
</linearGradient>
<linearGradient id="paint10_linear" x1="68.1812" y1="21.2992" x2="68.1812" y2="27.1251" gradientUnits="userSpaceOnUse">
<stop stop-color="#AFB1AE"/>
<stop offset="1" stop-color="#D8D8D8"/>
</linearGradient>
<linearGradient id="paint11_linear" x1="36.7373" y1="71.5126" x2="36.7373" y2="85.4742" gradientUnits="userSpaceOnUse">
<stop stop-color="#AFB1AE"/>
<stop offset="1" stop-color="#D8D8D8"/>
</linearGradient>
<linearGradient id="paint12_linear" x1="52.0474" y1="21.3029" x2="52.0474" y2="27.1039" gradientUnits="userSpaceOnUse">
<stop stop-color="#AFB1AE"/>
<stop offset="1" stop-color="#D8D8D8"/>
</linearGradient>
<linearGradient id="paint13_linear" x1="73.694" y1="34.8972" x2="73.694" y2="38.5945" gradientUnits="userSpaceOnUse">
<stop stop-color="#AFB1AE"/>
<stop offset="1" stop-color="#D8D8D8"/>
</linearGradient>
<linearGradient id="paint14_linear" x1="64.2698" y1="34.8932" x2="64.2698" y2="38.5963" gradientUnits="userSpaceOnUse">
<stop stop-color="#AFB1AE"/>
<stop offset="1" stop-color="#D8D8D8"/>
</linearGradient>
<linearGradient id="paint15_linear" x1="78.4835" y1="34.8231" x2="78.4835" y2="38.5971" gradientUnits="userSpaceOnUse">
<stop stop-color="#AFB1AE"/>
<stop offset="1" stop-color="#D8D8D8"/>
</linearGradient>
<linearGradient id="paint16_linear" x1="62.8081" y1="21.3102" x2="62.8081" y2="27.0889" gradientUnits="userSpaceOnUse">
<stop stop-color="#AFB1AE"/>
<stop offset="1" stop-color="#D8D8D8"/>
</linearGradient>
<linearGradient id="paint17_linear" x1="33.9122" y1="34.9015" x2="33.9122" y2="38.6319" gradientUnits="userSpaceOnUse">
<stop stop-color="#AFB1AE"/>
<stop offset="1" stop-color="#D8D8D8"/>
</linearGradient>
<linearGradient id="paint18_linear" x1="86.8356" y1="34.8896" x2="86.8356" y2="38.595" gradientUnits="userSpaceOnUse">
<stop stop-color="#AFB1AE"/>
<stop offset="1" stop-color="#D8D8D8"/>
</linearGradient>
<linearGradient id="paint19_linear" x1="69.0861" y1="34.9012" x2="69.0861" y2="38.5934" gradientUnits="userSpaceOnUse">
<stop stop-color="#AFB1AE"/>
<stop offset="1" stop-color="#D8D8D8"/>
</linearGradient>
<linearGradient id="paint20_linear" x1="82.6599" y1="34.9041" x2="82.6599" y2="38.6004" gradientUnits="userSpaceOnUse">
<stop stop-color="#AFB1AE"/>
<stop offset="1" stop-color="#D8D8D8"/>
</linearGradient>
<linearGradient id="paint21_linear" x1="62.1469" y1="72.4509" x2="62.1469" y2="77.3021" gradientUnits="userSpaceOnUse">
<stop stop-color="#AFB1AE"/>
<stop offset="1" stop-color="#D8D8D8"/>
</linearGradient>
<linearGradient id="paint22_linear" x1="54.1707" y1="34.8932" x2="54.1707" y2="38.6019" gradientUnits="userSpaceOnUse">
<stop stop-color="#AFB1AE"/>
<stop offset="1" stop-color="#D8D8D8"/>
</linearGradient>
<linearGradient id="paint23_linear" x1="55.0799" y1="73.7589" x2="55.0799" y2="77.3518" gradientUnits="userSpaceOnUse">
<stop stop-color="#AFB1AE"/>
<stop offset="1" stop-color="#D8D8D8"/>
</linearGradient>
<linearGradient id="paint24_linear" x1="59.3975" y1="81.1194" x2="59.3975" y2="84.6584" gradientUnits="userSpaceOnUse">
<stop stop-color="#AFB1AE"/>
<stop offset="1" stop-color="#D8D8D8"/>
</linearGradient>
<linearGradient id="paint25_linear" x1="47.4365" y1="79.9908" x2="47.4365" y2="84.6932" gradientUnits="userSpaceOnUse">
<stop stop-color="#AFB1AE"/>
<stop offset="1" stop-color="#D8D8D8"/>
</linearGradient>
<linearGradient id="paint26_linear" x1="47.4514" y1="72.635" x2="47.4514" y2="77.3298" gradientUnits="userSpaceOnUse">
<stop stop-color="#AFB1AE"/>
<stop offset="1" stop-color="#D8D8D8"/>
</linearGradient>
<linearGradient id="paint27_linear" x1="65.9829" y1="73.7795" x2="65.9829" y2="77.3853" gradientUnits="userSpaceOnUse">
<stop stop-color="#AFB1AE"/>
<stop offset="1" stop-color="#D8D8D8"/>
</linearGradient>
<linearGradient id="paint28_linear" x1="51.4191" y1="81.1465" x2="51.4191" y2="84.6958" gradientUnits="userSpaceOnUse">
<stop stop-color="#AFB1AE"/>
<stop offset="1" stop-color="#D8D8D8"/>
</linearGradient>
<linearGradient id="paint29_linear" x1="55.3633" y1="81.1851" x2="55.3633" y2="84.7012" gradientUnits="userSpaceOnUse">
<stop stop-color="#AFB1AE"/>
<stop offset="1" stop-color="#D8D8D8"/>
</linearGradient>
<linearGradient id="paint30_linear" x1="51.422" y1="73.7765" x2="51.422" y2="77.3339" gradientUnits="userSpaceOnUse">
<stop stop-color="#AFB1AE"/>
<stop offset="1" stop-color="#D8D8D8"/>
</linearGradient>
<linearGradient id="paint31_linear" x1="47.6605" y1="34.8953" x2="47.6605" y2="38.6323" gradientUnits="userSpaceOnUse">
<stop stop-color="#AFB1AE"/>
<stop offset="1" stop-color="#D8D8D8"/>
</linearGradient>
<linearGradient id="paint32_linear" x1="38.2636" y1="34.8752" x2="38.2636" y2="38.5967" gradientUnits="userSpaceOnUse">
<stop stop-color="#AFB1AE"/>
<stop offset="1" stop-color="#D8D8D8"/>
</linearGradient>
<linearGradient id="paint33_linear" x1="41.7822" y1="34.8965" x2="41.7822" y2="38.5964" gradientUnits="userSpaceOnUse">
<stop stop-color="#AFB1AE"/>
<stop offset="1" stop-color="#D8D8D8"/>
</linearGradient>
<linearGradient id="paint34_linear" x1="69.3911" y1="73.7863" x2="69.3911" y2="77.3422" gradientUnits="userSpaceOnUse">
<stop stop-color="#AFB1AE"/>
<stop offset="1" stop-color="#D8D8D8"/>
</linearGradient>
<linearGradient id="paint35_linear" x1="58.594" y1="73.7847" x2="58.594" y2="77.3381" gradientUnits="userSpaceOnUse">
<stop stop-color="#AFB1AE"/>
<stop offset="1" stop-color="#D8D8D8"/>
</linearGradient>
<linearGradient id="paint36_linear" x1="62.9901" y1="81.1171" x2="62.9901" y2="84.7225" gradientUnits="userSpaceOnUse">
<stop stop-color="#AFB1AE"/>
<stop offset="1" stop-color="#D8D8D8"/>
</linearGradient>
<linearGradient id="paint37_linear" x1="58.1319" y1="34.9012" x2="58.1319" y2="38.6158" gradientUnits="userSpaceOnUse">
<stop stop-color="#AFB1AE"/>
<stop offset="1" stop-color="#D8D8D8"/>
</linearGradient>
<linearGradient id="paint38_linear" x1="67.0821" y1="79.8071" x2="67.0821" y2="84.6629" gradientUnits="userSpaceOnUse">
<stop stop-color="#AFB1AE"/>
<stop offset="1" stop-color="#D8D8D8"/>
</linearGradient>
<linearGradient id="paint39_linear" x1="50.7831" y1="34.9015" x2="50.7831" y2="38.5978" gradientUnits="userSpaceOnUse">
<stop stop-color="#AFB1AE"/>
<stop offset="1" stop-color="#D8D8D8"/>
</linearGradient>
<linearGradient id="paint40_linear" x1="44.551" y1="34.8972" x2="44.551" y2="38.5909" gradientUnits="userSpaceOnUse">
<stop stop-color="#AFB1AE"/>
<stop offset="1" stop-color="#D8D8D8"/>
</linearGradient>
<linearGradient id="paint41_linear" x1="65.3554" y1="81.1846" x2="65.3554" y2="84.6629" gradientUnits="userSpaceOnUse">
<stop stop-color="#AFB1AE"/>
<stop offset="1" stop-color="#D8D8D8"/>
</linearGradient>
</defs>
</svg>
