<svg width="146" height="114" viewBox="0 0 146 114" fill="none" xmlns="http://www.w3.org/2000/svg">
<path d="M127.03 57C127.03 86.8234 102.854 111 73.0303 111C43.2069 111 19.0303 86.8234 19.0303 57C19.0303 27.1766 43.2069 3 73.0303 3C102.854 3 127.03 27.1766 127.03 57Z" fill="#13314E" stroke="url(#paint0_linear)" stroke-width="6"/>
<path d="M73.0302 109.268C101.897 109.268 125.298 85.8667 125.298 56.9999C125.298 28.1331 101.897 4.73193 73.0302 4.73193C44.1634 4.73193 20.7622 28.1331 20.7622 56.9999C20.7622 85.8667 44.1634 109.268 73.0302 109.268Z" fill="#14212D" stroke="#FAFAFA" stroke-miterlimit="10"/>
<g filter="url(#filter0_d)">
<path d="M4.37598 43.7517H141.677L134.102 56.7271L141.677 70.2698H4.37598L11.9516 57.0144L4.37598 43.7517Z" fill="url(#paint1_linear)"/>
</g>
<path d="M91.7577 17.3483L91.9372 19.3948L93.7252 20.4072L91.8367 21.2115L91.4274 23.2292L90.0774 21.6782L88.0381 21.908L89.0936 20.1487L88.2391 18.2746L90.2426 18.7341L91.7577 17.3483Z" fill="white"/>
<path d="M58.6691 17.3483L58.8487 19.3948L60.6366 20.4072L58.7409 21.2115L58.3317 23.2292L56.9817 21.6782L54.9424 21.908L55.9979 20.1487L55.1506 18.2746L57.1468 18.7341L58.6691 17.3483Z" fill="white"/>
<path d="M67.7457 16.0056L67.0707 17.9516L68.2842 19.6103L66.2234 19.5601L65.0242 21.226L64.4354 19.2585L62.4751 18.6338L64.1625 17.4633L64.1554 15.4025L65.7926 16.6519L67.7457 16.0056Z" fill="white"/>
<path d="M84.6485 16.0056L83.9664 17.9516L85.1799 19.6103L83.1262 19.5601L81.9271 21.226L81.3311 19.2585L79.3779 18.6338L81.0654 17.4633L81.0582 15.4025L82.6954 16.6519L84.6485 16.0056Z" fill="white"/>
<path d="M74.1432 14.4546L75.091 16.2785L77.1303 16.537L75.687 17.9947L76.0676 20.0124L74.2365 19.0933L72.4342 20.0842L72.7429 18.0521L71.2422 16.6447L73.2671 16.3144L74.1432 14.4546Z" fill="white"/>
<path d="M64.1982 25.5125H62.5107L61.8788 30.6611H61.0458L61.6706 25.5125H59.9688L60.0477 24.8088H64.2843L64.1982 25.5125Z" fill="white"/>
<path d="M65.3398 27.3798C65.548 27.0782 65.785 26.8484 66.0435 26.6904C66.302 26.5325 66.5605 26.4606 66.8262 26.4606C67.0057 26.4606 67.1565 26.4965 67.2929 26.5684C67.4294 26.6402 67.5371 26.7407 67.6232 26.8699C67.7094 27.0064 67.7669 27.1644 67.7956 27.3582C67.8243 27.5521 67.8243 27.7747 67.7956 28.026L67.4868 30.6613H66.6898L66.9985 28.026C67.0344 27.7173 67.0201 27.4875 66.9411 27.3367C66.8621 27.1859 66.7257 27.1141 66.5246 27.1141C66.4025 27.1141 66.2805 27.15 66.1584 27.2146C66.0363 27.2792 65.9142 27.3726 65.7994 27.4875C65.6845 27.6024 65.5696 27.746 65.469 27.9183C65.3685 28.0907 65.2823 28.2774 65.2034 28.4856L64.9377 30.6613H64.1406L64.873 24.6511H65.6701L65.3398 27.3798Z" fill="white"/>
<path d="M71.7813 29.893C71.6377 30.0366 71.5012 30.1586 71.372 30.2664C71.2355 30.3669 71.0991 30.4531 70.9627 30.5249C70.8262 30.5895 70.6755 30.6398 70.5247 30.6757C70.3739 30.7116 70.2087 30.7259 70.0292 30.7259C69.7922 30.7259 69.5768 30.6828 69.3901 30.6038C69.2034 30.5249 69.0383 30.41 68.9018 30.2664C68.7654 30.1227 68.6649 29.9432 68.5931 29.735C68.5213 29.5268 68.4854 29.297 68.4854 29.0385C68.4854 28.823 68.5069 28.6148 68.55 28.3994C68.5931 28.184 68.6577 27.9901 68.7439 27.8034C68.83 27.6167 68.9377 27.4372 69.0598 27.2792C69.1819 27.1141 69.3255 26.9776 69.4906 26.8556C69.6486 26.7407 69.8281 26.6473 70.022 26.5755C70.2159 26.5037 70.4241 26.475 70.6467 26.475C70.855 26.475 71.0417 26.5037 71.1996 26.5683C71.3576 26.6258 71.4797 26.7048 71.5874 26.7981C71.6879 26.8915 71.7669 26.992 71.81 27.1069C71.8603 27.2218 71.8818 27.3295 71.8818 27.4372C71.8818 27.6167 71.8459 27.7819 71.7741 27.9326C71.7023 28.0834 71.5659 28.2199 71.372 28.3419C71.1781 28.464 70.9124 28.5645 70.5749 28.6579C70.2374 28.7512 69.7994 28.8231 69.268 28.8733C69.268 28.8949 69.2609 28.9236 69.2609 28.9451C69.2609 28.9667 69.2609 28.9954 69.2609 29.0169C69.2609 29.376 69.3398 29.6416 69.4906 29.8212C69.6414 30.0007 69.8784 30.094 70.1872 30.094C70.3164 30.094 70.4313 30.0797 70.5318 30.0581C70.6324 30.0294 70.7185 30.0007 70.7975 29.9648C70.8765 29.9289 70.9411 29.8858 71.0058 29.8427C71.0632 29.7996 71.1207 29.7565 71.1709 29.7206C71.2212 29.6847 71.2714 29.6488 71.3145 29.6273C71.3576 29.5986 71.4007 29.5914 71.451 29.5914C71.4797 29.5914 71.5084 29.5986 71.53 29.6129C71.5515 29.6273 71.573 29.6488 71.5946 29.6704L71.7813 29.893ZM70.6036 27.0351C70.4385 27.0351 70.2877 27.071 70.1584 27.1356C70.022 27.2002 69.8999 27.2936 69.7922 27.4156C69.6845 27.5305 69.5912 27.6741 69.5122 27.8321C69.4332 27.9901 69.3758 28.1624 69.3327 28.3491C69.7348 28.2989 70.0507 28.2414 70.2949 28.1768C70.5318 28.1122 70.7185 28.0475 70.8478 27.9686C70.977 27.8896 71.0632 27.8178 71.1063 27.7316C71.1494 27.6454 71.1709 27.5593 71.1709 27.4659C71.1709 27.4228 71.1637 27.3726 71.1422 27.3223C71.1207 27.272 71.0919 27.2289 71.0417 27.1859C70.9986 27.1428 70.9411 27.1069 70.8693 27.0853C70.7975 27.0638 70.7042 27.0351 70.6036 27.0351Z" fill="white"/>
<path d="M76.915 24.8088C77.2238 24.8088 77.4895 24.8376 77.7121 24.9022C77.9347 24.9668 78.1142 25.053 78.2578 25.1679C78.4014 25.2828 78.5091 25.4192 78.5738 25.5843C78.6384 25.7423 78.6743 25.929 78.6743 26.1301C78.6743 26.3024 78.6527 26.4676 78.6025 26.6255C78.5522 26.7835 78.4804 26.9271 78.3799 27.0636C78.2794 27.2 78.1573 27.3149 78.0065 27.4154C77.8557 27.5159 77.6834 27.6021 77.4823 27.6667C77.827 27.7457 78.0926 27.8822 78.2578 28.076C78.4301 28.2699 78.5163 28.5212 78.5163 28.8228C78.5163 29.0885 78.466 29.3398 78.3727 29.5696C78.2722 29.7994 78.1357 29.9933 77.949 30.1584C77.7695 30.3236 77.5397 30.4528 77.2741 30.5462C77.0084 30.6395 76.7068 30.6826 76.3765 30.6826H74.4233L75.1414 24.8304H76.915V24.8088ZM76.4555 30.0005C76.6637 30.0005 76.8432 29.9717 77.0012 29.9143C77.1592 29.8568 77.2884 29.7778 77.3889 29.6773C77.4895 29.5768 77.5685 29.4547 77.6187 29.3111C77.669 29.1675 77.6977 29.0023 77.6977 28.83C77.6977 28.7079 77.6762 28.593 77.6331 28.4925C77.59 28.392 77.5326 28.3058 77.4536 28.2412C77.3746 28.1694 77.2669 28.1191 77.1448 28.076C77.0156 28.0401 76.8719 28.0186 76.6996 28.0186H75.5938L75.3496 30.0005H76.4555ZM75.9026 25.4695L75.6656 27.4226H76.5632C76.7714 27.4226 76.9581 27.3939 77.1161 27.3436C77.2741 27.2933 77.4105 27.2144 77.511 27.1138C77.6187 27.0133 77.6977 26.8912 77.748 26.7548C77.8054 26.6112 77.827 26.4532 77.827 26.2737C77.827 26.0008 77.748 25.7998 77.5828 25.6705C77.4249 25.5413 77.1735 25.4766 76.8289 25.4766H75.9026V25.4695Z" fill="white"/>
<path d="M82.4444 29.893C82.3007 30.0366 82.1643 30.1586 82.0351 30.2664C81.8986 30.3669 81.7622 30.4531 81.6258 30.5249C81.4893 30.5895 81.3385 30.6398 81.1877 30.6757C81.0369 30.7116 80.8718 30.7259 80.6923 30.7259C80.4553 30.7259 80.2399 30.6828 80.0532 30.6038C79.8665 30.5249 79.7013 30.41 79.5649 30.2664C79.4285 30.1227 79.3279 29.9432 79.2561 29.735C79.1843 29.5268 79.1484 29.297 79.1484 29.0385C79.1484 28.823 79.17 28.6148 79.2131 28.3994C79.2561 28.184 79.3208 27.9901 79.4069 27.8034C79.4931 27.6167 79.6008 27.4372 79.7229 27.2792C79.845 27.1141 79.9886 26.9776 80.1537 26.8556C80.3117 26.7407 80.4912 26.6473 80.6851 26.5755C80.879 26.5037 81.0872 26.475 81.3098 26.475C81.518 26.475 81.7047 26.5037 81.8627 26.5683C82.0207 26.6258 82.1428 26.7048 82.2505 26.7981C82.351 26.8915 82.43 26.992 82.4731 27.1069C82.5233 27.2218 82.5449 27.3295 82.5449 27.4372C82.5449 27.6167 82.509 27.7819 82.4372 27.9326C82.3654 28.0834 82.2289 28.2199 82.0351 28.3419C81.8412 28.464 81.5755 28.5645 81.238 28.6579C80.9005 28.7512 80.4625 28.8231 79.9311 28.8733C79.9311 28.8949 79.9239 28.9236 79.9239 28.9451C79.9239 28.9667 79.9239 28.9954 79.9239 29.0169C79.9239 29.376 80.0029 29.6416 80.1537 29.8212C80.3045 30.0007 80.5415 30.094 80.8502 30.094C80.9795 30.094 81.0944 30.0797 81.1949 30.0581C81.2955 30.0294 81.3816 30.0007 81.4606 29.9648C81.5396 29.9289 81.6042 29.8858 81.6688 29.8427C81.7263 29.7996 81.7837 29.7565 81.834 29.7206C81.8843 29.6847 81.9345 29.6488 81.9776 29.6273C82.0207 29.5986 82.0638 29.5914 82.114 29.5914C82.1428 29.5914 82.1715 29.5986 82.193 29.6129C82.2146 29.6273 82.2361 29.6488 82.2577 29.6704L82.4444 29.893ZM81.2595 27.0351C81.0944 27.0351 80.9436 27.071 80.8143 27.1356C80.6779 27.2002 80.5558 27.2936 80.4481 27.4156C80.3404 27.5305 80.2471 27.6741 80.1681 27.8321C80.0891 27.9901 80.0317 28.1624 79.9886 28.3491C80.3907 28.2989 80.7066 28.2414 80.9508 28.1768C81.1877 28.1122 81.3744 28.0475 81.5037 27.9686C81.6329 27.8896 81.7191 27.8178 81.7622 27.7316C81.8053 27.6454 81.8268 27.5593 81.8268 27.4659C81.8268 27.4228 81.8196 27.3726 81.7981 27.3223C81.7766 27.272 81.7478 27.2289 81.6976 27.1859C81.6545 27.1428 81.597 27.1069 81.5252 27.0853C81.4534 27.0638 81.3673 27.0351 81.2595 27.0351Z" fill="white"/>
<path d="M85.7474 27.2147C85.7259 27.2506 85.6972 27.2721 85.6756 27.2865C85.6541 27.3008 85.6254 27.308 85.5895 27.308C85.5464 27.308 85.5033 27.2936 85.4602 27.2649C85.4171 27.2362 85.3597 27.2003 85.2951 27.1644C85.2304 27.1285 85.1514 27.0998 85.0653 27.0639C84.9719 27.0351 84.8642 27.0208 84.7421 27.0208C84.6201 27.0208 84.5124 27.0351 84.419 27.071C84.3257 27.0998 84.2395 27.15 84.1749 27.2003C84.1102 27.2506 84.0528 27.3224 84.0169 27.3942C83.981 27.4732 83.9594 27.5522 83.9594 27.6311C83.9594 27.7245 83.981 27.8035 84.0313 27.8609C84.0815 27.9255 84.1461 27.9758 84.2251 28.0261C84.3041 28.0763 84.3975 28.1194 84.498 28.1553C84.5985 28.1912 84.7062 28.2343 84.8068 28.2774C84.9073 28.3205 85.015 28.3636 85.1155 28.421C85.2161 28.4785 85.3094 28.5359 85.3884 28.6077C85.4674 28.6795 85.532 28.7729 85.5823 28.8806C85.6325 28.9883 85.6541 29.1104 85.6541 29.2611C85.6541 29.455 85.6182 29.6345 85.5392 29.8141C85.4602 29.9864 85.3525 30.1444 85.2089 30.2808C85.0653 30.4172 84.8929 30.5249 84.6919 30.6039C84.4908 30.6829 84.2682 30.7188 84.0169 30.7188C83.7512 30.7188 83.5214 30.6686 83.3132 30.5752C83.105 30.4819 82.9398 30.3598 82.8105 30.2162L83.0044 29.9074C83.0547 29.8284 83.1265 29.7925 83.2127 29.7925C83.2557 29.7925 83.306 29.8141 83.3491 29.85C83.3922 29.8859 83.4496 29.9289 83.5142 29.972C83.5789 30.0151 83.6579 30.0582 83.7512 30.0941C83.8446 30.13 83.9666 30.1515 84.1174 30.1515C84.2467 30.1515 84.3616 30.13 84.4621 30.0941C84.5626 30.0582 84.6488 30.0079 84.7206 29.9433C84.7924 29.8787 84.8427 29.8069 84.8786 29.7207C84.9145 29.6345 84.936 29.5484 84.936 29.455C84.936 29.3545 84.9145 29.2683 84.8642 29.2037C84.8139 29.1319 84.7493 29.0745 84.6703 29.0314C84.5913 28.9811 84.498 28.938 84.3975 28.9021C84.2969 28.8662 84.1892 28.8303 84.0887 28.7872C83.981 28.7513 83.8805 28.7011 83.7799 28.658C83.6794 28.6077 83.5861 28.5503 83.5071 28.4785C83.4281 28.4066 83.3635 28.3133 83.3132 28.2128C83.2629 28.1051 83.2414 27.983 83.2414 27.8322C83.2414 27.6527 83.2773 27.4875 83.3491 27.3224C83.4209 27.1572 83.5214 27.0136 83.6507 26.8844C83.7799 26.7551 83.9451 26.6546 84.1318 26.5756C84.3185 26.4966 84.5339 26.4607 84.7709 26.4607C85.0294 26.4607 85.252 26.5038 85.4387 26.5828C85.6254 26.6618 85.7977 26.7766 85.9341 26.9203L85.7474 27.2147Z" fill="white"/>
<path d="M86.6595 29.8643C86.6595 29.85 86.6595 29.8284 86.6595 29.7997C86.6595 29.771 86.6595 29.7351 86.6667 29.6848C86.6739 29.6345 86.6811 29.5699 86.6883 29.4909C86.6954 29.4119 86.7098 29.3042 86.7242 29.175L86.9755 27.1644H86.5303C86.4872 27.1644 86.4585 27.15 86.4298 27.1213C86.401 27.0926 86.3938 27.0495 86.401 26.9921L86.4369 26.6689L87.0688 26.5756L87.3848 25.3405C87.3991 25.2974 87.4207 25.2615 87.4494 25.2328C87.4781 25.2041 87.5212 25.1969 87.5643 25.1969H87.9879L87.8156 26.5828H88.8783L88.8137 27.1644H87.7438L87.4997 29.1391C87.4853 29.254 87.4781 29.3401 87.4638 29.4048C87.4566 29.4694 87.4494 29.5268 87.4422 29.5627C87.435 29.5986 87.435 29.6274 87.435 29.6489C87.435 29.6633 87.435 29.6776 87.435 29.6848C87.435 29.8141 87.4638 29.9074 87.5284 29.972C87.593 30.0367 87.672 30.0726 87.7797 30.0726C87.8443 30.0726 87.909 30.0654 87.9592 30.0438C88.0095 30.0223 88.0526 30.0008 88.0885 29.9792C88.1244 29.9577 88.1603 29.9361 88.1818 29.9146C88.2105 29.893 88.2321 29.8859 88.2536 29.8859C88.2752 29.8859 88.2967 29.893 88.3111 29.9074C88.3254 29.9218 88.3398 29.9361 88.3542 29.9649L88.5193 30.3454C88.3829 30.4675 88.2249 30.5537 88.0526 30.6255C87.8802 30.6901 87.7079 30.726 87.5356 30.726C87.2627 30.726 87.0473 30.6542 86.8893 30.5034C86.7313 30.3526 86.6667 30.1444 86.6595 29.8643Z" fill="white"/>
<path d="M51.6748 33.7705C52.0338 33.7705 52.3498 33.8136 52.6155 33.9069C52.8811 34.0003 53.0966 34.1295 53.2689 34.2947C53.4412 34.4598 53.5705 34.6609 53.6495 34.8907C53.7356 35.1205 53.7715 35.3718 53.7715 35.6518C53.7715 35.9391 53.7285 36.1976 53.6423 36.4345C53.5561 36.6715 53.4269 36.8797 53.2473 37.0449C53.0678 37.21 52.8524 37.3465 52.5939 37.447C52.3354 37.5475 52.0266 37.5906 51.6748 37.5906H50.9208V39.6658H49.9155V33.7777H51.6748V33.7705ZM51.6748 36.7289C51.8615 36.7289 52.0195 36.7002 52.1559 36.6571C52.2923 36.614 52.4072 36.5351 52.5006 36.4417C52.5939 36.3484 52.6585 36.2335 52.7016 36.097C52.7447 35.9606 52.7662 35.8098 52.7662 35.6447C52.7662 35.4867 52.7447 35.3431 52.7016 35.2138C52.6585 35.0846 52.5867 34.9769 52.5006 34.8907C52.4072 34.7973 52.2995 34.7327 52.1631 34.6824C52.0266 34.6322 51.8615 34.6106 51.6748 34.6106H50.9208V36.7218H51.6748V36.7289Z" fill="white"/>
<path d="M55.5522 34.6396V36.2696H57.4479V37.1097H55.5522V38.7756H57.9577V39.6517H54.5469V33.7635H57.9577V34.6324H55.5522V34.6396Z" fill="white"/>
<path d="M63.0705 39.6589H62.1657C61.9934 39.6589 61.8713 39.5871 61.7924 39.4363L60.6578 37.5477C60.6147 37.4759 60.5716 37.4257 60.5142 37.397C60.4639 37.3682 60.3849 37.3539 60.2916 37.3539H59.8608V39.6517H58.8555V33.7635H60.507C60.8732 33.7635 61.1892 33.8066 61.4549 33.8856C61.7206 33.9718 61.936 34.0867 62.1011 34.2303C62.2663 34.3739 62.3955 34.5606 62.4745 34.7688C62.5535 34.9771 62.5966 35.2069 62.5966 35.4582C62.5966 35.6592 62.5679 35.8459 62.5176 36.0183C62.4673 36.1978 62.3884 36.3558 62.2878 36.4994C62.1873 36.643 62.0652 36.7722 61.9144 36.88C61.7636 36.9877 61.5985 37.0738 61.4046 37.1385C61.4692 37.1815 61.5267 37.2246 61.5841 37.2821C61.6416 37.3395 61.6918 37.4041 61.7349 37.4831L63.0705 39.6589ZM60.4855 36.5712C60.6722 36.5712 60.8373 36.5425 60.9809 36.4922C61.1246 36.4419 61.2394 36.3701 61.3256 36.2768C61.419 36.1834 61.4836 36.0757 61.5267 35.9537C61.5698 35.8316 61.5913 35.688 61.5913 35.5444C61.5913 35.2428 61.4979 35.013 61.3184 34.855C61.1389 34.697 60.8589 34.618 60.4927 34.618H59.8464V36.5712H60.4855Z" fill="white"/>
<path d="M64.6717 34.6394V36.3843H66.6966V37.2603H64.6717V39.6586H63.6592V33.7705H67.07V34.6394H64.6717Z" fill="white"/>
<path d="M73.0086 36.7146C73.0086 37.1455 72.944 37.5476 72.8147 37.9138C72.6855 38.28 72.4988 38.6031 72.2618 38.8688C72.0249 39.1345 71.7376 39.3499 71.4002 39.5007C71.0627 39.6515 70.6893 39.7233 70.28 39.7233C69.8707 39.7233 69.4973 39.6515 69.1598 39.5007C68.8223 39.3499 68.5351 39.1417 68.2909 38.8688C68.0468 38.6031 67.8601 38.28 67.7308 37.9138C67.6016 37.5476 67.5298 37.1455 67.5298 36.7146C67.5298 36.2838 67.5944 35.8817 67.7308 35.5155C67.8601 35.1492 68.0468 34.8261 68.2909 34.5604C68.5279 34.2947 68.8223 34.0793 69.1598 33.9285C69.4973 33.7777 69.8707 33.7059 70.28 33.7059C70.5528 33.7059 70.8113 33.7418 71.0555 33.8065C71.2996 33.8783 71.5222 33.9716 71.7233 34.1009C71.9243 34.2301 72.1039 34.3809 72.269 34.5604C72.4342 34.7399 72.5634 34.941 72.6783 35.1636C72.7932 35.3862 72.8794 35.6303 72.9368 35.8889C72.9799 36.1474 73.0086 36.4274 73.0086 36.7146ZM71.9818 36.7146C71.9818 36.3915 71.9387 36.1043 71.8597 35.8458C71.7807 35.5873 71.6658 35.3718 71.5222 35.1923C71.3786 35.0128 71.1991 34.8764 70.9837 34.783C70.7754 34.6897 70.5385 34.6394 70.2728 34.6394C70.0071 34.6394 69.7701 34.6897 69.5619 34.783C69.3537 34.8764 69.1742 35.0128 69.0234 35.1923C68.8726 35.3718 68.7577 35.5873 68.6787 35.8458C68.5997 36.1043 68.5566 36.3915 68.5566 36.7146C68.5566 37.0378 68.5997 37.325 68.6787 37.5835C68.7577 37.842 68.8726 38.0574 69.0234 38.2369C69.1742 38.4164 69.3537 38.5529 69.5619 38.6462C69.7701 38.7396 70.0071 38.7898 70.2728 38.7898C70.5385 38.7898 70.7754 38.7396 70.9837 38.6462C71.1919 38.5529 71.3714 38.4164 71.5222 38.2369C71.673 38.0574 71.7807 37.842 71.8597 37.5835C71.9387 37.325 71.9818 37.0378 71.9818 36.7146Z" fill="white"/>
<path d="M78.1211 39.6589H77.2092C77.0369 39.6589 76.9148 39.5871 76.8358 39.4363L75.7013 37.5477C75.6582 37.4759 75.6151 37.4257 75.5577 37.397C75.5074 37.3682 75.4284 37.3539 75.3351 37.3539H74.9042V39.6517H73.8989V33.7635H75.5505C75.9167 33.7635 76.2326 33.8066 76.4983 33.8856C76.764 33.9718 76.9794 34.0867 77.1446 34.2303C77.3097 34.3739 77.439 34.5606 77.518 34.7688C77.597 34.9771 77.64 35.2069 77.64 35.4582C77.64 35.6592 77.6113 35.8459 77.5611 36.0183C77.5108 36.1978 77.4318 36.3558 77.3313 36.4994C77.2307 36.643 77.1087 36.7722 76.9579 36.88C76.8071 36.9877 76.6419 37.0738 76.4481 37.1385C76.5127 37.1815 76.5701 37.2246 76.6276 37.2821C76.685 37.3395 76.7353 37.4041 76.7784 37.4831L78.1211 39.6589ZM75.5289 36.5712C75.7156 36.5712 75.8808 36.5425 76.0244 36.4922C76.168 36.4419 76.2829 36.3701 76.3691 36.2768C76.4624 36.1834 76.527 36.0757 76.5701 35.9537C76.6132 35.8316 76.6348 35.688 76.6348 35.5444C76.6348 35.2428 76.5414 35.013 76.3619 34.855C76.1824 34.697 75.9023 34.618 75.5361 34.618H74.8899V36.5712H75.5289Z" fill="white"/>
<path d="M84.5764 33.7707V39.6589H83.6932V35.8531C83.6932 35.7023 83.7004 35.5372 83.7147 35.3577L82.0775 38.7038C81.9986 38.8618 81.8837 38.9408 81.7185 38.9408H81.5749C81.4169 38.9408 81.2949 38.8618 81.2159 38.7038L79.5643 35.3505C79.5715 35.4366 79.5787 35.53 79.5859 35.6162C79.593 35.7023 79.593 35.7813 79.593 35.8531V39.6589H78.7026V33.7707H79.4638C79.5069 33.7707 79.5499 33.7707 79.5787 33.7779C79.6074 33.7779 79.6433 33.7851 79.6648 33.7995C79.6936 33.8138 79.7151 33.8282 79.7366 33.8497C79.7582 33.8713 79.7797 33.9072 79.8013 33.9502L81.4241 37.2174C81.4672 37.3036 81.5031 37.397 81.539 37.4831C81.5749 37.5693 81.6108 37.6698 81.6467 37.7704C81.6826 37.6698 81.7185 37.5765 81.7544 37.4759C81.7903 37.3826 81.8334 37.2892 81.8765 37.2031L83.4778 33.9431C83.4993 33.9 83.5209 33.8713 83.5424 33.8425C83.5639 33.821 83.5855 33.7995 83.6142 33.7923C83.6429 33.7851 83.6716 33.7779 83.7004 33.7707C83.7291 33.7707 83.7722 33.7635 83.8153 33.7635H84.5764V33.7707Z" fill="white"/>
<path d="M86.7883 39.6586H85.7759V33.7705H86.7883V39.6586Z" fill="white"/>
<path d="M92.5615 33.7707V39.6589H92.0445C91.9655 39.6589 91.9009 39.6445 91.8435 39.6158C91.786 39.5871 91.7357 39.5368 91.6855 39.4722L88.8635 35.5444C88.8779 35.7239 88.885 35.889 88.885 36.0398V39.6589H87.9946V33.7707H88.5188C88.5619 33.7707 88.5978 33.7707 88.6265 33.7779C88.6553 33.7851 88.684 33.7923 88.7055 33.7995C88.7271 33.8138 88.7486 33.8282 88.7773 33.8497C88.806 33.8713 88.8276 33.9 88.8491 33.9431L91.6855 37.8852C91.6783 37.7919 91.6711 37.6985 91.6639 37.6052C91.6568 37.5118 91.6568 37.4257 91.6568 37.3467V33.7635H92.5615V33.7707Z" fill="white"/>
<path d="M98.227 36.7003V39.0843C97.9541 39.3069 97.6597 39.4649 97.351 39.5654C97.0422 39.666 96.7047 39.7162 96.3528 39.7162C95.9148 39.7162 95.5127 39.6444 95.1537 39.4936C94.7946 39.3428 94.4931 39.1346 94.2346 38.8689C93.9832 38.6032 93.7893 38.2873 93.6457 37.9139C93.5093 37.5477 93.4375 37.1384 93.4375 36.7075C93.4375 36.2623 93.5021 35.8602 93.6386 35.4868C93.775 35.1134 93.9617 34.7975 94.1986 34.5318C94.4428 34.2661 94.7372 34.0579 95.0819 33.9142C95.4265 33.7706 95.8143 33.6917 96.2523 33.6917C96.4749 33.6917 96.676 33.7132 96.8698 33.7491C97.0637 33.785 97.2361 33.8424 97.4012 33.9071C97.5664 33.9717 97.7172 34.0579 97.8464 34.1512C97.9757 34.2446 98.1049 34.3523 98.2198 34.4672L97.9326 34.9626C97.8895 35.0416 97.8321 35.0919 97.7531 35.1062C97.6741 35.1206 97.6023 35.1062 97.5161 35.0488C97.4371 34.9985 97.351 34.9483 97.272 34.8908C97.193 34.8334 97.0996 34.7975 96.9991 34.7544C96.8986 34.7185 96.7837 34.6826 96.6616 34.661C96.5324 34.6395 96.3888 34.6251 96.2236 34.6251C95.9579 34.6251 95.7138 34.6754 95.4983 34.7687C95.2829 34.8621 95.0962 35.0057 94.9454 35.1852C94.7946 35.3647 94.6726 35.5873 94.5936 35.8387C94.5146 36.0972 94.4715 36.3772 94.4715 36.6932C94.4715 37.0307 94.5146 37.3322 94.6079 37.5979C94.6941 37.8636 94.8234 38.0862 94.9813 38.2729C95.1393 38.4596 95.3332 38.596 95.563 38.6894C95.7928 38.7827 96.0441 38.833 96.3241 38.833C96.5252 38.833 96.7047 38.8115 96.8627 38.7612C97.0206 38.7181 97.1714 38.6535 97.3222 38.5745V37.5046H96.6401C96.5754 37.5046 96.5252 37.483 96.4893 37.4471C96.4534 37.4112 96.4318 37.361 96.4318 37.3035V36.686H98.227V36.7003Z" fill="white"/>
<path d="M36.057 74.406C36.0283 74.4635 35.9924 74.5066 35.9565 74.5353C35.9206 74.564 35.8775 74.5712 35.8273 74.5712C35.777 74.5712 35.7195 74.5497 35.6549 74.5066C35.5903 74.4635 35.5185 74.4132 35.4323 74.363C35.3461 74.3127 35.2456 74.2624 35.1307 74.2194C35.0158 74.1763 34.8794 74.1547 34.7214 74.1547C34.5778 74.1547 34.4557 74.1763 34.348 74.2122C34.2403 74.2481 34.1542 74.2983 34.0824 74.3701C34.0105 74.4348 33.9531 74.5138 33.9172 74.6071C33.8813 74.7005 33.8669 74.801 33.8669 74.9087C33.8669 75.0523 33.9028 75.1672 33.9746 75.2605C34.0465 75.3539 34.1398 75.4329 34.2619 75.4975C34.3839 75.5621 34.5204 75.6268 34.6712 75.677C34.822 75.7273 34.9799 75.7847 35.1379 75.8422C35.2959 75.8996 35.4539 75.9714 35.6047 76.0504C35.7554 76.1294 35.8919 76.2299 36.014 76.352C36.136 76.4741 36.2294 76.6177 36.3012 76.79C36.373 76.9624 36.4089 77.1778 36.4089 77.4219C36.4089 77.6948 36.3658 77.9461 36.2796 78.1831C36.1935 78.42 36.0714 78.6283 35.9062 78.8006C35.7411 78.9729 35.54 79.1165 35.3031 79.2171C35.0661 79.3176 34.7932 79.3679 34.4917 79.3679C34.3193 79.3679 34.147 79.3463 33.9746 79.3104C33.8023 79.2745 33.6443 79.2171 33.4864 79.1525C33.3284 79.0806 33.1848 79.0017 33.0483 78.9011C32.9119 78.8078 32.7898 78.7001 32.6821 78.578L32.9837 78.0466C33.0124 78.0107 33.0412 77.9748 33.0842 77.9461C33.1273 77.9174 33.1704 77.903 33.2135 77.903C33.2781 77.903 33.3427 77.9317 33.4217 77.9892C33.4935 78.0466 33.5797 78.1113 33.6874 78.1759C33.7879 78.2477 33.91 78.3051 34.0465 78.3626C34.1829 78.42 34.348 78.4488 34.5347 78.4488C34.8291 78.4488 35.0517 78.377 35.2097 78.2262C35.3677 78.0754 35.4467 77.8599 35.4467 77.5799C35.4467 77.4219 35.4108 77.2927 35.339 77.1921C35.2672 77.0916 35.1738 77.0126 35.0517 76.9408C34.9297 76.8762 34.8004 76.8188 34.6424 76.7685C34.4917 76.7182 34.3337 76.668 34.1757 76.6177C34.0177 76.5602 33.8598 76.4956 33.709 76.4166C33.5582 76.3376 33.4217 76.2371 33.2997 76.115C33.1776 75.993 33.0842 75.835 33.0124 75.6483C32.9406 75.4616 32.9047 75.2318 32.9047 74.959C32.9047 74.7435 32.9478 74.5281 33.0268 74.3199C33.1058 74.1116 33.2207 73.9321 33.3787 73.767C33.5294 73.609 33.7161 73.4797 33.9387 73.3792C34.1613 73.2859 34.4198 73.2356 34.7071 73.2356C35.0302 73.2356 35.3318 73.293 35.6047 73.4008C35.8775 73.5085 36.1145 73.6664 36.3084 73.8675L36.057 74.406Z" fill="white"/>
<path d="M42.5553 76.3158C42.5553 76.7538 42.4907 77.1631 42.3542 77.5365C42.2178 77.9099 42.0311 78.233 41.787 78.5059C41.5428 78.7788 41.2484 78.9942 40.9037 79.145C40.5591 79.2958 40.1785 79.3747 39.762 79.3747C39.3455 79.3747 38.965 79.2958 38.6203 79.145C38.2756 78.9942 37.9812 78.7788 37.7371 78.5059C37.4929 78.233 37.2991 77.9099 37.1698 77.5365C37.0406 77.1631 36.9688 76.7538 36.9688 76.3158C36.9688 75.8778 37.0334 75.4685 37.1698 75.0951C37.3062 74.7217 37.4929 74.3986 37.7371 74.1257C37.9812 73.8528 38.2756 73.6374 38.6203 73.4866C38.965 73.3358 39.3455 73.2568 39.762 73.2568C40.0421 73.2568 40.3006 73.2927 40.5519 73.3645C40.796 73.4363 41.0258 73.5369 41.2269 73.6661C41.4351 73.7954 41.6146 73.9533 41.7798 74.1329C41.9449 74.3124 42.0814 74.5206 42.1963 74.7504C42.3112 74.9802 42.3973 75.2243 42.4548 75.49C42.5266 75.7413 42.5553 76.0214 42.5553 76.3158ZM41.5069 76.3158C41.5069 75.9855 41.4638 75.6911 41.3849 75.4326C41.3059 75.1741 41.191 74.9515 41.0402 74.7648C40.8894 74.5781 40.7099 74.4416 40.4945 74.3483C40.279 74.2549 40.0349 74.2047 39.7692 74.2047C39.5035 74.2047 39.2594 74.2549 39.044 74.3483C38.8285 74.4416 38.649 74.5852 38.4982 74.7648C38.3474 74.9443 38.2325 75.1669 38.1536 75.4326C38.0746 75.6911 38.0315 75.9855 38.0315 76.3158C38.0315 76.6461 38.0746 76.9405 38.1536 77.199C38.2325 77.4575 38.3474 77.6801 38.4982 77.8596C38.649 78.0391 38.8357 78.1828 39.044 78.2761C39.2522 78.3695 39.5035 78.4197 39.7692 78.4197C40.0349 78.4197 40.279 78.3695 40.4945 78.2761C40.7099 78.1828 40.8894 78.0391 41.0402 77.8596C41.191 77.6801 41.3059 77.4575 41.3849 77.199C41.4638 76.9405 41.5069 76.6461 41.5069 76.3158Z" fill="white"/>
<path d="M46.6846 78.3912V79.3103H43.4604V73.3145H44.4873V78.3912H46.6846Z" fill="white"/>
<path d="M49.4778 78.4127C49.6788 78.4127 49.8512 78.3768 50.0092 78.305C50.1671 78.2332 50.2964 78.1327 50.4041 78.0034C50.5118 77.8742 50.5908 77.7162 50.6482 77.5295C50.7057 77.3428 50.7344 77.1346 50.7344 76.9048V73.3145H51.7612V76.9048C51.7612 77.2638 51.711 77.5941 51.6033 77.8957C51.4956 78.1973 51.3448 78.463 51.1509 78.6784C50.957 78.8938 50.7129 79.0662 50.4328 79.1954C50.1528 79.3247 49.8368 79.3821 49.4778 79.3821C49.1188 79.3821 48.8028 79.3175 48.5228 79.1954C48.2427 79.0733 47.9986 78.901 47.8047 78.6784C47.6108 78.4558 47.46 78.1973 47.3523 77.8957C47.2446 77.5941 47.1943 77.2638 47.1943 76.9048V73.3145H48.2212V76.8976C48.2212 77.1274 48.2499 77.3356 48.3073 77.5223C48.3648 77.709 48.4438 77.867 48.5515 77.9962C48.6592 78.1255 48.7884 78.226 48.9464 78.2978C49.1044 78.3768 49.2839 78.4127 49.4778 78.4127Z" fill="white"/>
<path d="M56.7662 74.2336H55.1074V79.3103H54.0806V74.2336H52.4219V73.3145H56.7662V74.2336Z" fill="white"/>
<path d="M58.5185 79.3103H57.4917V73.3145H58.5185V79.3103Z" fill="white"/>
<path d="M65.0026 76.3158C65.0026 76.7538 64.9379 77.1631 64.8015 77.5365C64.6651 77.9099 64.4784 78.233 64.2342 78.5059C63.9901 78.7788 63.6957 78.9942 63.351 79.145C63.0063 79.2958 62.6258 79.3747 62.2093 79.3747C61.7928 79.3747 61.4122 79.2958 61.0676 79.145C60.7229 78.9942 60.4285 78.7788 60.1843 78.5059C59.9402 78.233 59.7463 77.9099 59.6171 77.5365C59.4878 77.1631 59.416 76.7538 59.416 76.3158C59.416 75.8778 59.4806 75.4685 59.6171 75.0951C59.7535 74.7217 59.9402 74.3986 60.1843 74.1257C60.4285 73.8528 60.7229 73.6374 61.0676 73.4866C61.4122 73.3358 61.7928 73.2568 62.2093 73.2568C62.4893 73.2568 62.7478 73.2927 62.9992 73.3645C63.2433 73.4363 63.4731 73.5369 63.6741 73.6661C63.8824 73.7954 64.0619 73.9533 64.227 74.1329C64.3922 74.3124 64.5286 74.5206 64.6435 74.7504C64.7584 74.9802 64.8446 75.2243 64.902 75.49C64.9738 75.7413 65.0026 76.0214 65.0026 76.3158ZM63.9542 76.3158C63.9542 75.9855 63.9111 75.6911 63.8321 75.4326C63.7531 75.1741 63.6382 74.9515 63.4874 74.7648C63.3366 74.5781 63.1571 74.4416 62.9417 74.3483C62.7263 74.2549 62.4822 74.2047 62.2165 74.2047C61.9508 74.2047 61.7066 74.2549 61.4912 74.3483C61.2758 74.4416 61.0963 74.5852 60.9455 74.7648C60.7947 74.9443 60.6798 75.1669 60.6008 75.4326C60.5218 75.6911 60.4787 75.9855 60.4787 76.3158C60.4787 76.6461 60.5218 76.9405 60.6008 77.199C60.6798 77.4575 60.7947 77.6801 60.9455 77.8596C61.0963 78.0391 61.283 78.1828 61.4912 78.2761C61.6995 78.3695 61.9508 78.4197 62.2165 78.4197C62.4822 78.4197 62.7263 78.3695 62.9417 78.2761C63.1571 78.1828 63.3366 78.0391 63.4874 77.8596C63.6382 77.6801 63.7531 77.4575 63.8321 77.199C63.9111 76.9405 63.9542 76.6461 63.9542 76.3158Z" fill="white"/>
<path d="M70.5459 73.3145V79.3104H70.0217C69.9427 79.3104 69.8709 79.296 69.8207 79.2673C69.7632 79.2386 69.713 79.1883 69.6627 79.1165L66.7904 75.1169C66.8048 75.2964 66.812 75.4687 66.812 75.6195V79.3032H65.9072V73.3074H66.4458C66.4889 73.3074 66.5248 73.3074 66.5607 73.3145C66.5894 73.3217 66.6181 73.3289 66.6468 73.3361C66.6684 73.3505 66.6971 73.3648 66.7186 73.3935C66.7402 73.4223 66.7689 73.451 66.7976 73.4869L69.6843 77.5009C69.6771 77.4075 69.6699 77.307 69.6627 77.2136C69.6555 77.1203 69.6555 77.0341 69.6555 76.9551V73.3145H70.5459Z" fill="white"/>
<path d="M75.4142 73.3145C75.7804 73.3145 76.1035 73.3647 76.3692 73.4581C76.6349 73.5514 76.8575 73.6807 77.037 73.853C77.2165 74.0253 77.3458 74.2264 77.4247 74.4562C77.5109 74.6931 77.554 74.9516 77.554 75.2245C77.554 75.5117 77.5109 75.7774 77.4176 76.0216C77.3314 76.2657 77.195 76.4739 77.0154 76.6463C76.8359 76.8186 76.6133 76.955 76.3476 77.0556C76.082 77.1561 75.766 77.1992 75.407 77.1992H74.6386V79.3103H73.6118V73.3145H75.4142ZM75.4142 76.3303C75.6009 76.3303 75.766 76.3016 75.9024 76.2513C76.0389 76.2011 76.1609 76.1293 76.2543 76.0287C76.3476 75.9354 76.4195 75.8205 76.4625 75.6841C76.5056 75.5476 76.5343 75.3968 76.5343 75.2245C76.5343 75.0665 76.5128 74.9157 76.4625 74.7865C76.4195 74.6572 76.3476 74.5495 76.2543 74.4562C76.1609 74.3628 76.0461 74.2982 75.9096 74.2479C75.7732 74.1977 75.608 74.1761 75.4142 74.1761H74.6458V76.3303H75.4142Z" fill="white"/>
<path d="M82.6381 79.3104H81.7118C81.5395 79.3104 81.4102 79.2386 81.3312 79.0878L80.1752 77.1706C80.1321 77.0988 80.0818 77.0485 80.0315 77.0198C79.9813 76.9911 79.9023 76.9767 79.8018 76.9767H79.3637V79.3176H78.3369V73.3218H80.0172C80.3906 73.3218 80.7137 73.3649 80.9794 73.451C81.2451 73.5372 81.4677 73.6521 81.64 73.8029C81.8123 73.9537 81.9344 74.1332 82.0206 74.3486C82.1068 74.564 82.1427 74.7938 82.1427 75.0451C82.1427 75.2462 82.1139 75.4401 82.0637 75.6196C82.0062 75.7991 81.9272 75.9642 81.8267 76.1079C81.7262 76.2515 81.5969 76.3807 81.4461 76.4956C81.2953 76.6033 81.123 76.6967 80.9291 76.7541C80.9938 76.7972 81.0584 76.8475 81.1086 76.9049C81.1589 76.9624 81.2164 77.027 81.2594 77.106L82.6381 79.3104ZM80.0028 76.1653C80.1967 76.1653 80.3619 76.1366 80.5055 76.0863C80.6491 76.0361 80.764 75.9643 80.8573 75.8709C80.9507 75.7776 81.0225 75.6698 81.0656 75.5406C81.1086 75.4113 81.1374 75.2749 81.1374 75.1241C81.1374 74.8225 81.044 74.5856 80.8645 74.4204C80.685 74.2553 80.3978 74.1763 80.0244 74.1763H79.3709V76.1653H80.0028Z" fill="white"/>
<path d="M88.4113 76.3158C88.4113 76.7538 88.3466 77.1631 88.2102 77.5365C88.0738 77.9099 87.8871 78.233 87.6429 78.5059C87.3988 78.7788 87.1044 78.9942 86.7597 79.145C86.415 79.2958 86.0345 79.3747 85.618 79.3747C85.2015 79.3747 84.8209 79.2958 84.4763 79.145C84.1316 78.9942 83.8372 78.7788 83.593 78.5059C83.3489 78.233 83.155 77.9099 83.0258 77.5365C82.8965 77.1631 82.8247 76.7538 82.8247 76.3158C82.8247 75.8778 82.8893 75.4685 83.0258 75.0951C83.1622 74.7217 83.3489 74.3986 83.593 74.1257C83.8372 73.8528 84.1316 73.6374 84.4763 73.4866C84.8209 73.3358 85.2015 73.2568 85.618 73.2568C85.898 73.2568 86.1565 73.2927 86.4078 73.3645C86.652 73.4363 86.8818 73.5369 87.0828 73.6661C87.2911 73.7954 87.4706 73.9533 87.6357 74.1329C87.8009 74.3124 87.9373 74.5206 88.0522 74.7504C88.1671 74.9802 88.2533 75.2243 88.3107 75.49C88.3825 75.7413 88.4113 76.0214 88.4113 76.3158ZM87.3629 76.3158C87.3629 75.9855 87.3198 75.6911 87.2408 75.4326C87.1618 75.1741 87.0469 74.9515 86.8961 74.7648C86.7453 74.5781 86.5658 74.4416 86.3504 74.3483C86.135 74.2549 85.8908 74.2047 85.6252 74.2047C85.3595 74.2047 85.1153 74.2549 84.8999 74.3483C84.6845 74.4416 84.505 74.5852 84.3542 74.7648C84.2034 74.9443 84.0885 75.1669 84.0095 75.4326C83.9305 75.6911 83.8874 75.9855 83.8874 76.3158C83.8874 76.6461 83.9305 76.9405 84.0095 77.199C84.0885 77.4575 84.2034 77.6801 84.3542 77.8596C84.505 78.0391 84.6917 78.1828 84.8999 78.2761C85.1082 78.3695 85.3595 78.4197 85.6252 78.4197C85.8908 78.4197 86.135 78.3695 86.3504 78.2761C86.5658 78.1828 86.7453 78.0391 86.8961 77.8596C87.0469 77.6801 87.1618 77.4575 87.2408 77.199C87.327 76.9405 87.3629 76.6461 87.3629 76.3158Z" fill="white"/>
<path d="M93.8539 73.3145L91.6279 79.3103H90.7016L88.4756 73.3145H89.3014C89.3875 73.3145 89.4593 73.336 89.5168 73.3863C89.5742 73.4365 89.6173 73.494 89.646 73.5658L90.9457 77.2207C90.9888 77.3428 91.0319 77.4721 91.0678 77.6157C91.1037 77.7593 91.1468 77.9101 91.1827 78.0609C91.2114 77.9029 91.2473 77.7593 91.2832 77.6157C91.3191 77.4721 91.355 77.3428 91.3981 77.2207L92.6906 73.5658C92.7122 73.5012 92.7481 73.4437 92.8127 73.3934C92.8773 73.3432 92.9419 73.3145 93.0353 73.3145H93.8539Z" fill="white"/>
<path d="M95.4555 79.3103H94.4287V73.3145H95.4555V79.3103Z" fill="white"/>
<path d="M101.573 76.3161C101.573 76.7541 101.509 77.1562 101.372 77.5296C101.236 77.8959 101.049 78.2118 100.805 78.4775C100.561 78.7432 100.266 78.9514 99.9216 79.095C99.5769 79.2386 99.1963 79.3176 98.7799 79.3176H96.6831V73.3218H98.7799C99.1963 73.3218 99.5769 73.3936 99.9216 73.5444C100.266 73.6952 100.561 73.8962 100.805 74.1619C101.049 74.4276 101.236 74.7435 101.372 75.1098C101.509 75.4688 101.573 75.8709 101.573 76.3161ZM100.525 76.3161C100.525 75.9858 100.482 75.6914 100.403 75.4329C100.324 75.1744 100.209 74.9518 100.058 74.7723C99.9072 74.5927 99.7205 74.4491 99.5123 74.3558C99.2969 74.2624 99.0527 74.2122 98.787 74.2122H97.7171V78.4344H98.787C99.0599 78.4344 99.2969 78.3841 99.5123 78.2908C99.7277 78.1974 99.9072 78.0538 100.058 77.8743C100.209 77.6948 100.324 77.4722 100.403 77.2137C100.482 76.9552 100.525 76.6464 100.525 76.3161Z" fill="white"/>
<path d="M103.505 74.205V75.8637H105.429V76.7182H103.505V78.4128H105.953V79.3032H102.478V73.3074H105.953V74.1978H103.505V74.205Z" fill="white"/>
<path d="M111.16 79.3104H110.233C110.061 79.3104 109.932 79.2386 109.853 79.0878L108.697 77.1706C108.654 77.0988 108.603 77.0485 108.553 77.0198C108.503 76.9911 108.424 76.9767 108.323 76.9767H107.885V79.3176H106.858V73.3218H108.539C108.912 73.3218 109.235 73.3649 109.501 73.451C109.767 73.5372 109.989 73.6521 110.162 73.8029C110.334 73.9537 110.456 74.1332 110.542 74.3486C110.628 74.564 110.664 74.7938 110.664 75.0451C110.664 75.2462 110.635 75.4401 110.585 75.6196C110.528 75.7991 110.449 75.9642 110.348 76.1079C110.248 76.2515 110.118 76.3807 109.968 76.4956C109.817 76.6033 109.644 76.6967 109.451 76.7541C109.515 76.7972 109.58 76.8475 109.63 76.9049C109.68 76.9624 109.738 77.027 109.781 77.106L111.16 79.3104ZM108.524 76.1653C108.718 76.1653 108.883 76.1366 109.027 76.0863C109.171 76.0361 109.285 75.9643 109.379 75.8709C109.472 75.7776 109.544 75.6698 109.587 75.5406C109.63 75.4113 109.659 75.2749 109.659 75.1241C109.659 74.8225 109.566 74.5856 109.386 74.4204C109.206 74.2553 108.919 74.1763 108.546 74.1763H107.892V76.1653H108.524Z" fill="white"/>
<path d="M114.685 74.4059C114.657 74.4634 114.621 74.5065 114.585 74.5352C114.549 74.5639 114.506 74.5711 114.456 74.5711C114.405 74.5711 114.348 74.5495 114.283 74.5065C114.219 74.4634 114.147 74.4131 114.061 74.3628C113.975 74.3126 113.874 74.2623 113.759 74.2192C113.644 74.1761 113.508 74.1546 113.35 74.1546C113.206 74.1546 113.084 74.1761 112.976 74.212C112.869 74.2479 112.783 74.2982 112.711 74.37C112.639 74.4346 112.582 74.5136 112.546 74.607C112.51 74.7003 112.495 74.8009 112.495 74.9086C112.495 75.0522 112.531 75.1671 112.603 75.2604C112.675 75.3538 112.768 75.4328 112.89 75.4974C113.012 75.562 113.149 75.6266 113.3 75.6769C113.45 75.7272 113.608 75.7846 113.766 75.8421C113.924 75.8995 114.082 75.9713 114.233 76.0503C114.384 76.1293 114.52 76.2298 114.642 76.3519C114.764 76.474 114.858 76.6176 114.93 76.7899C115.001 76.9622 115.037 77.1777 115.037 77.4218C115.037 77.6947 114.994 77.946 114.908 78.1829C114.822 78.4199 114.7 78.6281 114.535 78.8005C114.369 78.9728 114.168 79.1164 113.931 79.217C113.695 79.3175 113.422 79.3678 113.12 79.3678C112.948 79.3678 112.775 79.3462 112.603 79.3103C112.431 79.2744 112.273 79.217 112.115 79.1523C111.957 79.0805 111.813 79.0015 111.677 78.901C111.54 78.8077 111.418 78.7 111.311 78.5779L111.612 78.0465C111.641 78.0106 111.67 77.9747 111.713 77.946C111.756 77.9173 111.799 77.9029 111.842 77.9029C111.907 77.9029 111.971 77.9316 112.05 77.9891C112.122 78.0465 112.208 78.1111 112.316 78.1758C112.416 78.2476 112.538 78.305 112.675 78.3625C112.811 78.4199 112.976 78.4486 113.163 78.4486C113.458 78.4486 113.68 78.3768 113.838 78.226C113.996 78.0752 114.075 77.8598 114.075 77.5798C114.075 77.4218 114.039 77.2925 113.967 77.192C113.896 77.0915 113.802 77.0125 113.68 76.9407C113.558 76.8761 113.429 76.8186 113.271 76.7684C113.12 76.7181 112.962 76.6678 112.804 76.6176C112.646 76.5601 112.488 76.4955 112.337 76.4165C112.187 76.3375 112.05 76.237 111.928 76.1149C111.806 75.9929 111.713 75.8349 111.641 75.6482C111.569 75.4615 111.533 75.2317 111.533 74.9588C111.533 74.7434 111.576 74.528 111.655 74.3198C111.734 74.1115 111.849 73.932 112.007 73.7668C112.158 73.6089 112.345 73.4796 112.567 73.3791C112.79 73.2857 113.048 73.2355 113.335 73.2355C113.659 73.2355 113.96 73.2929 114.233 73.4006C114.506 73.5083 114.743 73.6663 114.937 73.8674L114.685 74.4059Z" fill="white"/>
<path d="M65.4353 99.7481C65.6229 99.7481 65.7707 99.8021 65.8786 99.9099C65.9911 100.013 66.0474 100.152 66.0474 100.325V101.366H59.0674V100.789C59.0674 100.672 59.0908 100.55 59.1377 100.424C59.1893 100.292 59.2691 100.175 59.377 100.072L62.4659 96.9758C62.7239 96.7131 62.9538 96.4621 63.1555 96.2229C63.3619 95.9837 63.5331 95.7468 63.6691 95.5122C63.8052 95.2777 63.9084 95.0408 63.9787 94.8016C64.0538 94.5576 64.0913 94.302 64.0913 94.0346C64.0913 93.7907 64.0561 93.5772 63.9858 93.3943C63.9154 93.2067 63.8146 93.0495 63.6832 92.9229C63.5566 92.7962 63.4018 92.7024 63.2188 92.6414C63.0406 92.5757 62.8389 92.5429 62.6137 92.5429C62.4073 92.5429 62.215 92.5734 62.0367 92.6344C61.8632 92.6907 61.7084 92.7728 61.5723 92.8806C61.4363 92.9838 61.3214 93.1058 61.2275 93.2465C61.1337 93.3873 61.0634 93.5421 61.0164 93.7109C60.9367 93.9267 60.8335 94.0698 60.7068 94.1401C60.5802 94.2105 60.3972 94.2269 60.158 94.1894L59.2433 94.0276C59.3137 93.5397 59.4497 93.1128 59.6514 92.747C59.8531 92.3764 60.1041 92.0691 60.4043 91.8252C60.7092 91.5766 61.0563 91.3913 61.4457 91.2693C61.8397 91.1427 62.2619 91.0793 62.7122 91.0793C63.1813 91.0793 63.6105 91.1497 63.9999 91.2904C64.3892 91.4265 64.7222 91.6211 64.999 91.8745C65.2758 92.1278 65.4916 92.4327 65.6464 92.7892C65.8012 93.1457 65.8786 93.5421 65.8786 93.9783C65.8786 94.3536 65.8223 94.7007 65.7097 95.0197C65.6018 95.3387 65.454 95.6436 65.2664 95.9344C65.0834 96.2252 64.8677 96.5067 64.619 96.7788C64.3704 97.0508 64.1101 97.3276 63.838 97.6091L61.5442 99.9522C61.7646 99.8865 61.9828 99.8372 62.1985 99.8044C62.419 99.7669 62.6278 99.7481 62.8248 99.7481H65.4353Z" fill="white"/>
<path d="M74.5062 96.2792C74.5062 97.1658 74.41 97.9374 74.2177 98.5941C74.0301 99.2462 73.7674 99.7856 73.4296 100.213C73.0966 100.639 72.7002 100.958 72.2405 101.169C71.7855 101.376 71.2929 101.479 70.7629 101.479C70.2328 101.479 69.7403 101.376 69.2852 101.169C68.8349 100.958 68.4432 100.639 68.1102 100.213C67.7771 99.7856 67.5168 99.2462 67.3291 98.5941C67.1415 97.9374 67.0477 97.1658 67.0477 96.2792C67.0477 95.3879 67.1415 94.6163 67.3291 93.9642C67.5168 93.3122 67.7771 92.7728 68.1102 92.3459C68.4432 91.919 68.8349 91.6024 69.2852 91.396C69.7403 91.1849 70.2328 91.0793 70.7629 91.0793C71.2929 91.0793 71.7855 91.1849 72.2405 91.396C72.7002 91.6024 73.0966 91.919 73.4296 92.3459C73.7674 92.7728 74.0301 93.3122 74.2177 93.9642C74.41 94.6163 74.5062 95.3879 74.5062 96.2792ZM72.7119 96.2792C72.7119 95.5427 72.658 94.9329 72.5501 94.4497C72.4422 93.9666 72.2968 93.5819 72.1138 93.2958C71.9356 93.0096 71.7292 92.8103 71.4946 92.6977C71.2601 92.5804 71.0162 92.5218 70.7629 92.5218C70.5142 92.5218 70.2727 92.5804 70.0381 92.6977C69.8083 92.8103 69.6042 93.0096 69.426 93.2958C69.2477 93.5819 69.1046 93.9666 68.9967 94.4497C68.8935 94.9329 68.8419 95.5427 68.8419 96.2792C68.8419 97.0157 68.8935 97.6255 68.9967 98.1086C69.1046 98.5918 69.2477 98.9765 69.426 99.2626C69.6042 99.5487 69.8083 99.7505 70.0381 99.8677C70.2727 99.9803 70.5142 100.037 70.7629 100.037C71.0162 100.037 71.2601 99.9803 71.4946 99.8677C71.7292 99.7505 71.9356 99.5487 72.1138 99.2626C72.2968 98.9765 72.4422 98.5918 72.5501 98.1086C72.658 97.6255 72.7119 97.0157 72.7119 96.2792Z" fill="white"/>
<path d="M81.7617 99.7481C81.9494 99.7481 82.0971 99.8021 82.205 99.9099C82.3176 100.013 82.3739 100.152 82.3739 100.325V101.366H75.3939V100.789C75.3939 100.672 75.4173 100.55 75.4642 100.424C75.5158 100.292 75.5956 100.175 75.7035 100.072L78.7924 96.9758C79.0504 96.7131 79.2803 96.4621 79.482 96.2229C79.6884 95.9837 79.8596 95.7468 79.9956 95.5122C80.1317 95.2777 80.2349 95.0408 80.3052 94.8016C80.3803 94.5576 80.4178 94.302 80.4178 94.0346C80.4178 93.7907 80.3826 93.5772 80.3123 93.3943C80.2419 93.2067 80.141 93.0495 80.0097 92.9229C79.883 92.7962 79.7282 92.7024 79.5453 92.6414C79.3671 92.5757 79.1653 92.5429 78.9402 92.5429C78.7338 92.5429 78.5415 92.5734 78.3632 92.6344C78.1896 92.6907 78.0348 92.7728 77.8988 92.8806C77.7628 92.9838 77.6478 93.1058 77.554 93.2465C77.4602 93.3873 77.3898 93.5421 77.3429 93.7109C77.2632 93.9267 77.16 94.0698 77.0333 94.1401C76.9067 94.2105 76.7237 94.2269 76.4845 94.1894L75.5698 94.0276C75.6401 93.5397 75.7762 93.1128 75.9779 92.747C76.1796 92.3764 76.4306 92.0691 76.7308 91.8252C77.0357 91.5766 77.3828 91.3913 77.7721 91.2693C78.1662 91.1427 78.5884 91.0793 79.0387 91.0793C79.5078 91.0793 79.937 91.1497 80.3263 91.2904C80.7157 91.4265 81.0487 91.6211 81.3255 91.8745C81.6023 92.1278 81.818 92.4327 81.9728 92.7892C82.1276 93.1457 82.205 93.5421 82.205 93.9783C82.205 94.3536 82.1487 94.7007 82.0362 95.0197C81.9283 95.3387 81.7805 95.6436 81.5929 95.9344C81.4099 96.2252 81.1942 96.5067 80.9455 96.7788C80.6969 97.0508 80.4366 97.3276 80.1645 97.6091L77.8707 99.9522C78.0911 99.8865 78.3093 99.8372 78.525 99.8044C78.7455 99.7669 78.9543 99.7481 79.1513 99.7481H81.7617Z" fill="white"/>
<path d="M90.8327 96.2792C90.8327 97.1658 90.7365 97.9374 90.5442 98.5941C90.3566 99.2462 90.0939 99.7856 89.7561 100.213C89.4231 100.639 89.0267 100.958 88.567 101.169C88.112 101.376 87.6194 101.479 87.0894 101.479C86.5593 101.479 86.0667 101.376 85.6117 101.169C85.1614 100.958 84.7697 100.639 84.4367 100.213C84.1036 99.7856 83.8433 99.2462 83.6556 98.5941C83.468 97.9374 83.3742 97.1658 83.3742 96.2792C83.3742 95.3879 83.468 94.6163 83.6556 93.9642C83.8433 93.3122 84.1036 92.7728 84.4367 92.3459C84.7697 91.919 85.1614 91.6024 85.6117 91.396C86.0667 91.1849 86.5593 91.0793 87.0894 91.0793C87.6194 91.0793 88.112 91.1849 88.567 91.396C89.0267 91.6024 89.4231 91.919 89.7561 92.3459C90.0939 92.7728 90.3566 93.3122 90.5442 93.9642C90.7365 94.6163 90.8327 95.3879 90.8327 96.2792ZM89.0384 96.2792C89.0384 95.5427 88.9845 94.9329 88.8766 94.4497C88.7687 93.9666 88.6233 93.5819 88.4403 93.2958C88.2621 93.0096 88.0557 92.8103 87.8211 92.6977C87.5866 92.5804 87.3427 92.5218 87.0894 92.5218C86.8407 92.5218 86.5992 92.5804 86.3646 92.6977C86.1348 92.8103 85.9307 93.0096 85.7524 93.2958C85.5742 93.5819 85.4311 93.9666 85.3232 94.4497C85.22 94.9329 85.1684 95.5427 85.1684 96.2792C85.1684 97.0157 85.22 97.6255 85.3232 98.1086C85.4311 98.5918 85.5742 98.9765 85.7524 99.2626C85.9307 99.5487 86.1348 99.7505 86.3646 99.8677C86.5992 99.9803 86.8407 100.037 87.0894 100.037C87.3427 100.037 87.5866 99.9803 87.8211 99.8677C88.0557 99.7505 88.2621 99.5487 88.4403 99.2626C88.6233 98.9765 88.7687 98.5918 88.8766 98.1086C88.9845 97.6255 89.0384 97.0157 89.0384 96.2792Z" fill="white"/>
<path d="M26.8044 53.2534C26.7326 53.3791 26.6548 53.4718 26.5711 53.5316C26.4933 53.5855 26.3945 53.6124 26.2749 53.6124C26.1492 53.6124 26.0116 53.5676 25.862 53.4778C25.7184 53.3821 25.5448 53.2773 25.3414 53.1636C25.1379 53.0499 24.8986 52.9482 24.6233 52.8585C24.354 52.7627 24.0339 52.7148 23.6629 52.7148C23.3278 52.7148 23.0346 52.7567 22.7833 52.8405C22.5319 52.9183 22.3195 53.029 22.146 53.1726C21.9784 53.3162 21.8528 53.4898 21.769 53.6932C21.6852 53.8907 21.6433 54.1091 21.6433 54.3484C21.6433 54.6536 21.7271 54.9079 21.8947 55.1114C22.0682 55.3148 22.2956 55.4884 22.5768 55.632C22.8581 55.7756 23.1782 55.9043 23.5372 56.0179C23.8963 56.1316 24.2643 56.2543 24.6413 56.386C25.0182 56.5116 25.3863 56.6612 25.7453 56.8347C26.1043 57.0023 26.4245 57.2177 26.7057 57.481C26.9869 57.7383 27.2113 58.0555 27.3789 58.4324C27.5524 58.8094 27.6392 59.2672 27.6392 59.8057C27.6392 60.3922 27.5375 60.9427 27.334 61.4573C27.1365 61.9659 26.8433 62.4117 26.4544 62.7947C26.0714 63.1717 25.6017 63.4709 25.0452 63.6923C24.4887 63.9077 23.8514 64.0154 23.1333 64.0154C22.7204 64.0154 22.3135 63.9735 21.9126 63.8897C21.5117 63.8119 21.1257 63.6983 20.7547 63.5487C20.3897 63.3991 20.0456 63.2195 19.7225 63.0101C19.3994 62.8007 19.1122 62.5673 18.8608 62.31L19.5699 61.1521C19.6298 61.0683 19.7076 60.9995 19.8033 60.9457C19.899 60.8858 20.0008 60.8559 20.1085 60.8559C20.2581 60.8559 20.4196 60.9187 20.5932 61.0444C20.7667 61.1641 20.9731 61.2987 21.2125 61.4483C21.4519 61.5979 21.7301 61.7355 22.0473 61.8612C22.3704 61.9809 22.7563 62.0407 23.2051 62.0407C23.8933 62.0407 24.4258 61.8792 24.8028 61.556C25.1798 61.2269 25.3683 60.7572 25.3683 60.1468C25.3683 59.8057 25.2815 59.5275 25.108 59.3121C24.9405 59.0967 24.7161 58.9171 24.4348 58.7735C24.1536 58.6239 23.8334 58.4983 23.4744 58.3965C23.1154 58.2948 22.7504 58.1841 22.3794 58.0644C22.0084 57.9448 21.6433 57.8011 21.2843 57.6336C20.9253 57.466 20.6051 57.2476 20.3239 56.9784C20.0427 56.7091 19.8153 56.374 19.6417 55.9731C19.4742 55.5662 19.3904 55.0665 19.3904 54.4741C19.3904 54.0014 19.4832 53.5406 19.6687 53.0918C19.8601 52.643 20.1354 52.2451 20.4944 51.898C20.8535 51.551 21.2963 51.2727 21.8229 51.0633C22.3494 50.8539 22.9538 50.7491 23.636 50.7491C24.4019 50.7491 25.108 50.8688 25.7543 51.1082C26.4005 51.3475 26.951 51.6826 27.4058 52.1135L26.8044 53.2534Z" fill="#13314E"/>
<path d="M36.34 58.971L34.7602 54.6536C34.6824 54.4621 34.6017 54.2348 34.5179 53.9715C34.4341 53.7082 34.3503 53.4239 34.2666 53.1188C34.1888 53.4239 34.108 53.7112 34.0242 53.9804C33.9404 54.2437 33.8597 54.4741 33.7819 54.6716L32.2111 58.971H36.34ZM40.6035 63.8718H38.7365C38.5271 63.8718 38.3565 63.8209 38.2249 63.7192C38.0932 63.6115 37.9945 63.4798 37.9287 63.3243L36.9593 60.6764H31.5828L30.6134 63.3243C30.5655 63.4619 30.4728 63.5876 30.3352 63.7012C30.1975 63.8149 30.027 63.8718 29.8235 63.8718H27.9386L33.0458 50.8928H35.5052L40.6035 63.8718Z" fill="#13314E"/>
<path d="M49.5494 61.8792V63.8718H41.9469V50.8928H44.3614V61.8792H49.5494Z" fill="#13314E"/>
<path d="M53.6968 52.8136V56.4129H58.2386V58.2709H53.6968V61.942H59.4593V63.8718H51.2733V50.8928H59.4593V52.8136H53.6968Z" fill="#13314E"/>
<path d="M68.5104 53.2534C68.4386 53.3791 68.3608 53.4718 68.277 53.5316C68.1992 53.5855 68.1005 53.6124 67.9808 53.6124C67.8552 53.6124 67.7175 53.5676 67.5679 53.4778C67.4243 53.3821 67.2508 53.2773 67.0474 53.1636C66.8439 53.0499 66.6045 52.9482 66.3293 52.8585C66.06 52.7627 65.7399 52.7148 65.3689 52.7148C65.0338 52.7148 64.7406 52.7567 64.4892 52.8405C64.2379 52.9183 64.0255 53.029 63.852 53.1726C63.6844 53.3162 63.5588 53.4898 63.475 53.6932C63.3912 53.8907 63.3493 54.1091 63.3493 54.3484C63.3493 54.6536 63.4331 54.9079 63.6006 55.1114C63.7742 55.3148 64.0016 55.4884 64.2828 55.632C64.564 55.7756 64.8842 55.9043 65.2432 56.0179C65.6022 56.1316 65.9703 56.2543 66.3472 56.386C66.7242 56.5116 67.0922 56.6612 67.4513 56.8347C67.8103 57.0023 68.1304 57.2177 68.4117 57.481C68.6929 57.7383 68.9173 58.0555 69.0849 58.4324C69.2584 58.8094 69.3452 59.2672 69.3452 59.8057C69.3452 60.3922 69.2434 60.9427 69.04 61.4573C68.8425 61.9659 68.5493 62.4117 68.1604 62.7947C67.7774 63.1717 67.3077 63.4709 66.7512 63.6923C66.1946 63.9077 65.5574 64.0154 64.8393 64.0154C64.4264 64.0154 64.0195 63.9735 63.6186 63.8897C63.2177 63.8119 62.8317 63.6983 62.4607 63.5487C62.0957 63.3991 61.7516 63.2195 61.4285 63.0101C61.1054 62.8007 60.8181 62.5673 60.5668 62.31L61.2759 61.1521C61.3357 61.0683 61.4135 60.9995 61.5093 60.9457C61.605 60.8858 61.7067 60.8559 61.8144 60.8559C61.964 60.8559 62.1256 60.9187 62.2991 61.0444C62.4727 61.1641 62.6791 61.2987 62.9185 61.4483C63.1578 61.5979 63.4361 61.7355 63.7532 61.8612C64.0764 61.9809 64.4623 62.0407 64.9111 62.0407C65.5993 62.0407 66.1318 61.8792 66.5088 61.556C66.8858 61.2269 67.0743 60.7572 67.0743 60.1468C67.0743 59.8057 66.9875 59.5275 66.814 59.3121C66.6464 59.0967 66.422 58.9171 66.1408 58.7735C65.8596 58.6239 65.5394 58.4983 65.1804 58.3965C64.8214 58.2948 64.4563 58.1841 64.0853 58.0644C63.7143 57.9448 63.3493 57.8011 62.9903 57.6336C62.6313 57.466 62.3111 57.2476 62.0299 56.9784C61.7486 56.7091 61.5212 56.374 61.3477 55.9731C61.1802 55.5662 61.0964 55.0665 61.0964 54.4741C61.0964 54.0014 61.1891 53.5406 61.3746 53.0918C61.5661 52.643 61.8414 52.2451 62.2004 51.898C62.5594 51.551 63.0023 51.2727 63.5288 51.0633C64.0554 50.8539 64.6598 50.7491 65.3419 50.7491C66.1079 50.7491 66.814 50.8688 67.4602 51.1082C68.1065 51.3475 68.657 51.6826 69.1118 52.1135L68.5104 53.2534Z" fill="#13314E"/>
<path d="M73.8749 52.8136V56.6552H78.7397V58.585H73.8749V63.8718H71.4514V50.8928H79.6373V52.8136H73.8749Z" fill="#13314E"/>
<path d="M93.8742 57.3823C93.8742 58.3337 93.7157 59.2163 93.3985 60.0301C93.0874 60.838 92.6445 61.5381 92.0701 62.1305C91.4956 62.7229 90.8045 63.1866 89.9967 63.5217C89.1889 63.8508 88.2913 64.0154 87.3039 64.0154C86.3226 64.0154 85.428 63.8508 84.6202 63.5217C83.8123 63.1866 83.1182 62.7229 82.5378 62.1305C81.9633 61.5381 81.5175 60.838 81.2004 60.0301C80.8832 59.2163 80.7247 58.3337 80.7247 57.3823C80.7247 56.4308 80.8832 55.5512 81.2004 54.7434C81.5175 53.9296 81.9633 53.2265 82.5378 52.6341C83.1182 52.0417 83.8123 51.5809 84.6202 51.2518C85.428 50.9167 86.3226 50.7491 87.3039 50.7491C87.9622 50.7491 88.5815 50.8269 89.1619 50.9825C89.7424 51.1321 90.2749 51.3475 90.7596 51.6288C91.2443 51.904 91.6782 52.2421 92.0611 52.643C92.4501 53.038 92.7792 53.4808 93.0485 53.9715C93.3177 54.4621 93.5212 54.9947 93.6588 55.5692C93.8024 56.1436 93.8742 56.748 93.8742 57.3823ZM91.4059 57.3823C91.4059 56.6702 91.3101 56.0329 91.1187 55.4704C90.9272 54.902 90.6549 54.4203 90.3019 54.0253C89.9488 53.6304 89.518 53.3282 89.0093 53.1188C88.5067 52.9093 87.9382 52.8046 87.3039 52.8046C86.6696 52.8046 86.0982 52.9093 85.5896 53.1188C85.0869 53.3282 84.6561 53.6304 84.297 54.0253C83.944 54.4203 83.6717 54.902 83.4802 55.4704C83.2888 56.0329 83.193 56.6702 83.193 57.3823C83.193 58.0944 83.2888 58.7346 83.4802 59.3031C83.6717 59.8656 83.944 60.3443 84.297 60.7392C84.6561 61.1282 85.0869 61.4274 85.5896 61.6368C86.0982 61.8462 86.6696 61.951 87.3039 61.951C87.9382 61.951 88.5067 61.8462 89.0093 61.6368C89.518 61.4274 89.9488 61.1282 90.3019 60.7392C90.6549 60.3443 90.9272 59.8656 91.1187 59.3031C91.3101 58.7346 91.4059 58.0944 91.4059 57.3823Z" fill="#13314E"/>
<path d="M99.9171 57.0681C100.372 57.0681 100.767 57.0113 101.102 56.8976C101.443 56.7839 101.721 56.6283 101.937 56.4308C102.158 56.2274 102.323 55.988 102.43 55.7128C102.538 55.4375 102.592 55.1353 102.592 54.8062C102.592 54.148 102.373 53.6423 101.937 53.2893C101.506 52.9363 100.845 52.7597 99.953 52.7597H98.4091V57.0681H99.9171ZM106.128 63.8718H103.947C103.534 63.8718 103.235 63.7102 103.05 63.3871L100.321 59.2313C100.219 59.0757 100.106 58.965 99.9799 58.8992C99.8602 58.8334 99.6807 58.8004 99.4413 58.8004H98.4091V63.8718H95.9946V50.8928H99.953C100.833 50.8928 101.587 50.9855 102.215 51.171C102.849 51.3505 103.367 51.6048 103.768 51.934C104.175 52.2631 104.474 52.658 104.665 53.1188C104.857 53.5735 104.952 54.0762 104.952 54.6267C104.952 55.0635 104.887 55.4764 104.755 55.8654C104.629 56.2543 104.444 56.6074 104.199 56.9245C103.959 57.2417 103.66 57.5199 103.301 57.7593C102.948 57.9986 102.544 58.1871 102.089 58.3247C102.245 58.4145 102.388 58.5222 102.52 58.6479C102.652 58.7675 102.771 58.9111 102.879 59.0787L106.128 63.8718Z" fill="#13314E"/>
<path d="M116.268 60.811C116.399 60.811 116.516 60.8619 116.618 60.9636L117.569 61.9958C117.043 62.6481 116.393 63.1477 115.621 63.4948C114.855 63.8419 113.934 64.0154 112.857 64.0154C111.893 64.0154 111.026 63.8508 110.254 63.5217C109.488 63.1926 108.833 62.7348 108.288 62.1484C107.744 61.562 107.325 60.8619 107.032 60.0481C106.744 59.2343 106.601 58.3457 106.601 57.3823C106.601 56.4069 106.756 55.5153 107.067 54.7075C107.379 53.8937 107.815 53.1936 108.378 52.6071C108.946 52.0207 109.623 51.5659 110.406 51.2428C111.19 50.9137 112.058 50.7491 113.009 50.7491C113.955 50.7491 114.793 50.9047 115.523 51.2159C116.259 51.527 116.884 51.934 117.399 52.4366L116.591 53.5586C116.543 53.6304 116.48 53.6932 116.402 53.7471C116.33 53.8009 116.229 53.8278 116.097 53.8278C116.007 53.8278 115.915 53.8039 115.819 53.756C115.723 53.7022 115.618 53.6394 115.505 53.5676C115.391 53.4898 115.259 53.406 115.11 53.3162C114.96 53.2265 114.787 53.1457 114.589 53.0739C114.392 52.9961 114.161 52.9333 113.898 52.8854C113.641 52.8315 113.342 52.8046 113 52.8046C112.42 52.8046 111.887 52.9093 111.403 53.1188C110.924 53.3222 110.511 53.6214 110.164 54.0163C109.817 54.4053 109.548 54.884 109.356 55.4525C109.165 56.015 109.069 56.6582 109.069 57.3823C109.069 58.1123 109.171 58.7616 109.374 59.33C109.584 59.8985 109.865 60.3772 110.218 60.7662C110.571 61.1551 110.987 61.4543 111.466 61.6637C111.944 61.8672 112.459 61.9689 113.009 61.9689C113.339 61.9689 113.635 61.951 113.898 61.9151C114.167 61.8792 114.413 61.8223 114.634 61.7445C114.861 61.6667 115.074 61.568 115.271 61.4483C115.475 61.3227 115.675 61.1701 115.873 60.9905C115.933 60.9367 115.995 60.8948 116.061 60.8649C116.127 60.829 116.196 60.811 116.268 60.811Z" fill="#13314E"/>
<path d="M121.647 52.8136V56.4129H126.188V58.2709H121.647V61.942H127.409V63.8718H119.223V50.8928H127.409V52.8136H121.647Z" fill="#13314E"/>
<path d="M72.6639 82.5488C72.6639 82.635 72.6495 82.7212 72.6136 82.8001C72.5777 82.8791 72.5346 82.9438 72.4844 83.0012C72.4269 83.0586 72.3623 83.1089 72.2905 83.1376C72.2187 83.1664 72.1397 83.1879 72.0535 83.1879C71.9745 83.1879 71.8955 83.1735 71.8237 83.1376C71.7519 83.1017 71.6873 83.0586 71.637 83.0012C71.5868 82.9438 71.5437 82.872 71.5078 82.8001C71.4791 82.7212 71.4575 82.6422 71.4575 82.5488C71.4575 82.4555 71.4719 82.3693 71.5078 82.2903C71.5365 82.2113 71.5796 82.1395 71.637 82.0821C71.6873 82.0246 71.7519 81.9744 71.8237 81.9456C71.8955 81.9097 71.9745 81.8954 72.0535 81.8954C72.1397 81.8954 72.2187 81.9097 72.2905 81.9456C72.3623 81.9815 72.4269 82.0246 72.4844 82.0821C72.5418 82.1395 72.5849 82.2113 72.6136 82.2903C72.6495 82.3693 72.6639 82.4555 72.6639 82.5488ZM72.5346 83.7839V88.0348H71.5868V83.7839H72.5346Z" fill="white"/>
<path d="M74.3801 84.3082C74.4591 84.222 74.5452 84.143 74.6314 84.0712C74.7176 83.9994 74.8109 83.9348 74.9115 83.8845C75.012 83.8342 75.1125 83.7912 75.2274 83.7624C75.3423 83.7337 75.4644 83.7194 75.5936 83.7194C75.809 83.7194 75.9957 83.7553 76.1609 83.8343C76.326 83.9132 76.4625 84.0209 76.5774 84.1646C76.6923 84.3082 76.7712 84.4805 76.8287 84.6744C76.8861 84.8754 76.9149 85.0909 76.9149 85.3278V88.0349H75.9742V85.3278C75.9742 85.0693 75.9167 84.8683 75.809 84.7246C75.7013 84.581 75.5362 84.5092 75.3136 84.5092C75.1484 84.5092 74.9976 84.5523 74.854 84.6313C74.7104 84.7103 74.574 84.818 74.4519 84.9616V88.0349H73.5112V83.784H74.0857C74.2078 83.784 74.2867 83.8486 74.3226 83.9707L74.3801 84.3082Z" fill="white"/>
<defs>
<filter id="filter0_d" x="0.375977" y="39.7517" width="145.301" height="34.5181" filterUnits="userSpaceOnUse" color-interpolation-filters="sRGB">
<feFlood flood-opacity="0" result="BackgroundImageFix"/>
<feColorMatrix in="SourceAlpha" type="matrix" values="0 0 0 0 0 0 0 0 0 0 0 0 0 0 0 0 0 0 127 0" result="hardAlpha"/>
<feOffset/>
<feGaussianBlur stdDeviation="2"/>
<feComposite in2="hardAlpha" operator="out"/>
<feColorMatrix type="matrix" values="0 0 0 0 0 0 0 0 0 0 0 0 0 0 0 0 0 0 0.25 0"/>
<feBlend mode="normal" in2="BackgroundImageFix" result="effect1_dropShadow"/>
<feBlend mode="normal" in="SourceGraphic" in2="effect1_dropShadow" result="shape"/>
</filter>
<linearGradient id="paint0_linear" x1="73.0303" y1="0" x2="73.0303" y2="114" gradientUnits="userSpaceOnUse">
<stop stop-color="#AFB1AE"/>
<stop offset="1" stop-color="#D7D7D7"/>
</linearGradient>
<linearGradient id="paint1_linear" x1="73.0266" y1="43.7517" x2="73.0266" y2="70.2698" gradientUnits="userSpaceOnUse">
<stop stop-color="#AFB1AE"/>
<stop offset="1" stop-color="#D5D6D5"/>
</linearGradient>
</defs>
</svg>
